solid OpenSCAD_Model
  facet normal -1 0 0
    outer loop
      vertex -225 -200 -440
      vertex -225 200 440
      vertex -225 200 -440
    endloop
  endfacet
  facet normal -1 -0 0
    outer loop
      vertex -225 200 440
      vertex -225 -200 -440
      vertex -225 -200 440
    endloop
  endfacet
  facet normal -0 0 1
    outer loop
      vertex -225 200 440
      vertex 225 -200 440
      vertex 225 200 440
    endloop
  endfacet
  facet normal 0 0 1
    outer loop
      vertex 225 -200 440
      vertex -225 200 440
      vertex -225 -200 440
    endloop
  endfacet
  facet normal 1 -0 0
    outer loop
      vertex 225 -200 440
      vertex 225 200 -440
      vertex 225 200 440
    endloop
  endfacet
  facet normal 1 0 0
    outer loop
      vertex 225 200 -440
      vertex 225 -200 440
      vertex 225 -200 -440
    endloop
  endfacet
  facet normal 0 0 -1
    outer loop
      vertex -225 -200 -440
      vertex 225 200 -440
      vertex 225 -200 -440
    endloop
  endfacet
  facet normal -0 0 -1
    outer loop
      vertex 225 200 -440
      vertex -225 -200 -440
      vertex -225 200 -440
    endloop
  endfacet
  facet normal 0 -1 0
    outer loop
      vertex -92.6064 -200 -418
      vertex -203 -200 -354.408
      vertex -203 -200 -377.82
    endloop
  endfacet
  facet normal 0 -1 0
    outer loop
      vertex -203 -200 -354.408
      vertex -92.6064 -200 -418
      vertex -28.2827 -200 -418
    endloop
  endfacet
  facet normal 0 -1 0
    outer loop
      vertex 185.155 -200 -418
      vertex -203 -200 -253.311
      vertex -203 -200 -276.723
    endloop
  endfacet
  facet normal 0 -1 0
    outer loop
      vertex -203 -200 -253.311
      vertex 185.155 -200 -418
      vertex 203 -200 -401.083
    endloop
  endfacet
  facet normal 0 -1 0
    outer loop
      vertex -203 -200 -175.626
      vertex 203 -200 -299.986
      vertex -203 -200 -152.214
    endloop
  endfacet
  facet normal -0 -1 -0
    outer loop
      vertex 203 -200 -299.986
      vertex -203 -200 -175.626
      vertex 203 -200 -323.398
    endloop
  endfacet
  facet normal 0 -1 0
    outer loop
      vertex -203 -200 -74.5293
      vertex 203 -200 -198.889
      vertex -203 -200 -51.1174
    endloop
  endfacet
  facet normal -0 -1 -0
    outer loop
      vertex 203 -200 -198.889
      vertex -203 -200 -74.5293
      vertex 203 -200 -222.301
    endloop
  endfacet
  facet normal 0 -1 0
    outer loop
      vertex -203 -200 26.5676
      vertex 203 -200 -97.7924
      vertex -203 -200 49.9795
    endloop
  endfacet
  facet normal -0 -1 -0
    outer loop
      vertex 203 -200 -97.7924
      vertex -203 -200 26.5676
      vertex 203 -200 -121.204
    endloop
  endfacet
  facet normal 0 -1 0
    outer loop
      vertex 203 -200 80.9894
      vertex -1.95817 -200 179
      vertex -66.2819 -200 179
    endloop
  endfacet
  facet normal 0 -1 0
    outer loop
      vertex -1.95817 -200 179
      vertex 203 -200 80.9894
      vertex 203 -200 104.401
    endloop
  endfacet
  facet normal 0 -1 0
    outer loop
      vertex -225 -200 440
      vertex -203 -200 418
      vertex 225 -200 440
    endloop
  endfacet
  facet normal 0 -1 0
    outer loop
      vertex -225 -200 440
      vertex -203 -200 201
      vertex -203 -200 418
    endloop
  endfacet
  facet normal 0 -1 0
    outer loop
      vertex -203 -200 179
      vertex -126.726 -200 201
      vertex -203 -200 201
    endloop
  endfacet
  facet normal 0 -1 0
    outer loop
      vertex -126.726 -200 201
      vertex -66.2819 -200 179
      vertex -62.4027 -200 201
    endloop
  endfacet
  facet normal 0 -1 -0
    outer loop
      vertex -126.726 -200 201
      vertex -203 -200 179
      vertex -66.2819 -200 179
    endloop
  endfacet
  facet normal 0 -1 0
    outer loop
      vertex -225 -200 440
      vertex -203 -200 179
      vertex -203 -200 201
    endloop
  endfacet
  facet normal 0 -1 0
    outer loop
      vertex -225 -200 440
      vertex -203 -200 151.076
      vertex -203 -200 179
    endloop
  endfacet
  facet normal 0 -1 0
    outer loop
      vertex -225 -200 440
      vertex -203 -200 127.664
      vertex -203 -200 151.076
    endloop
  endfacet
  facet normal 0 -1 0
    outer loop
      vertex -225 -200 440
      vertex -203 -200 49.9795
      vertex -203 -200 127.664
    endloop
  endfacet
  facet normal 0 -1 0
    outer loop
      vertex -225 -200 440
      vertex -203 -200 26.5676
      vertex -203 -200 49.9795
    endloop
  endfacet
  facet normal 0 -1 0
    outer loop
      vertex -225 -200 440
      vertex -203 -200 -51.1174
      vertex -203 -200 26.5676
    endloop
  endfacet
  facet normal 0 -1 0
    outer loop
      vertex -225 -200 -440
      vertex -203 -200 -51.1174
      vertex -225 -200 440
    endloop
  endfacet
  facet normal 0 -1 -0
    outer loop
      vertex -203 -200 -51.1174
      vertex -225 -200 -440
      vertex -203 -200 -74.5293
    endloop
  endfacet
  facet normal 0 -1 -0
    outer loop
      vertex -203 -200 -74.5293
      vertex -225 -200 -440
      vertex -203 -200 -152.214
    endloop
  endfacet
  facet normal 0 -1 -0
    outer loop
      vertex -203 -200 -152.214
      vertex -225 -200 -440
      vertex -203 -200 -175.626
    endloop
  endfacet
  facet normal 0 -1 -0
    outer loop
      vertex -203 -200 -175.626
      vertex -225 -200 -440
      vertex -203 -200 -253.311
    endloop
  endfacet
  facet normal 0 -1 -0
    outer loop
      vertex -203 -200 -253.311
      vertex -225 -200 -440
      vertex -203 -200 -276.723
    endloop
  endfacet
  facet normal 0 -1 -0
    outer loop
      vertex -203 -200 -276.723
      vertex -225 -200 -440
      vertex -203 -200 -354.408
    endloop
  endfacet
  facet normal 0 -1 -0
    outer loop
      vertex -203 -200 -354.408
      vertex -225 -200 -440
      vertex -203 -200 -377.82
    endloop
  endfacet
  facet normal 0 -1 0
    outer loop
      vertex -225 -200 -440
      vertex -92.6064 -200 -418
      vertex -203 -200 -418
    endloop
  endfacet
  facet normal 0 -1 -0
    outer loop
      vertex -92.6064 -200 -418
      vertex -225 -200 -440
      vertex -28.2827 -200 -418
    endloop
  endfacet
  facet normal 0 -1 0
    outer loop
      vertex 225 -200 -440
      vertex -28.2827 -200 -418
      vertex -225 -200 -440
    endloop
  endfacet
  facet normal 0 -1 -0
    outer loop
      vertex -203 -200 -377.82
      vertex -225 -200 -440
      vertex -203 -200 -418
    endloop
  endfacet
  facet normal 0 -1 0
    outer loop
      vertex 203 -200 418
      vertex 225 -200 440
      vertex -203 -200 418
    endloop
  endfacet
  facet normal 0 -1 0
    outer loop
      vertex 203 -200 201
      vertex 225 -200 440
      vertex 203 -200 418
    endloop
  endfacet
  facet normal 0 -1 -0
    outer loop
      vertex -62.4027 -200 201
      vertex -66.2819 -200 179
      vertex -1.95817 -200 179
    endloop
  endfacet
  facet normal 0 -1 0
    outer loop
      vertex -62.4027 -200 201
      vertex -1.95817 -200 179
      vertex 203 -200 201
    endloop
  endfacet
  facet normal 0 -1 0
    outer loop
      vertex 203 -200 179
      vertex 203 -200 201
      vertex -1.95817 -200 179
    endloop
  endfacet
  facet normal 0 -1 0
    outer loop
      vertex 203 -200 179
      vertex 225 -200 440
      vertex 203 -200 201
    endloop
  endfacet
  facet normal 0 -1 0
    outer loop
      vertex 203 -200 104.401
      vertex 225 -200 440
      vertex 203 -200 179
    endloop
  endfacet
  facet normal 0 -1 0
    outer loop
      vertex 203 -200 80.9894
      vertex 225 -200 440
      vertex 203 -200 104.401
    endloop
  endfacet
  facet normal 0 -1 0
    outer loop
      vertex 203 -200 3.30444
      vertex 225 -200 440
      vertex 203 -200 80.9894
    endloop
  endfacet
  facet normal 0 -1 0
    outer loop
      vertex 203 -200 -20.1075
      vertex 225 -200 440
      vertex 203 -200 3.30444
    endloop
  endfacet
  facet normal 0 -1 0
    outer loop
      vertex 225 -200 -440
      vertex 203 -200 -20.1075
      vertex 203 -200 -97.7924
    endloop
  endfacet
  facet normal 0 -1 0
    outer loop
      vertex 225 -200 -440
      vertex 203 -200 -97.7924
      vertex 203 -200 -121.204
    endloop
  endfacet
  facet normal 0 -1 0
    outer loop
      vertex 225 -200 -440
      vertex 203 -200 -121.204
      vertex 203 -200 -198.889
    endloop
  endfacet
  facet normal 0 -1 0
    outer loop
      vertex 225 -200 -440
      vertex 203 -200 -198.889
      vertex 203 -200 -222.301
    endloop
  endfacet
  facet normal 0 -1 0
    outer loop
      vertex 225 -200 -440
      vertex 203 -200 -222.301
      vertex 203 -200 -299.986
    endloop
  endfacet
  facet normal 0 -1 0
    outer loop
      vertex 225 -200 -440
      vertex 203 -200 -299.986
      vertex 203 -200 -323.398
    endloop
  endfacet
  facet normal 0 -1 0
    outer loop
      vertex 225 -200 -440
      vertex 203 -200 -323.398
      vertex 203 -200 -401.083
    endloop
  endfacet
  facet normal 0 -1 0
    outer loop
      vertex 203 -200 -20.1075
      vertex 225 -200 -440
      vertex 225 -200 440
    endloop
  endfacet
  facet normal 0 -1 0
    outer loop
      vertex 185.155 -200 -418
      vertex 225 -200 -440
      vertex 203 -200 -401.083
    endloop
  endfacet
  facet normal 0 -1 0
    outer loop
      vertex -28.2827 -200 -418
      vertex 225 -200 -440
      vertex 185.155 -200 -418
    endloop
  endfacet
  facet normal 0 -1 0
    outer loop
      vertex -126.726 -200 201
      vertex -65.1501 -200 202
      vertex -129.474 -200 202
    endloop
  endfacet
  facet normal 0 -1 -0
    outer loop
      vertex -65.1501 -200 202
      vertex -126.726 -200 201
      vertex -62.4027 -200 201
    endloop
  endfacet
  facet normal 0 -1 0
    outer loop
      vertex -203 -200 127.664
      vertex 203 -200 3.30444
      vertex -203 -200 151.076
    endloop
  endfacet
  facet normal -0 -1 -0
    outer loop
      vertex 203 -200 3.30444
      vertex -203 -200 127.664
      vertex 203 -200 -20.1075
    endloop
  endfacet
  facet normal 0 1 -0
    outer loop
      vertex -92.6064 200 -418
      vertex -203 200 -354.408
      vertex -28.2827 200 -418
    endloop
  endfacet
  facet normal 0 1 0
    outer loop
      vertex -203 200 -354.408
      vertex -92.6064 200 -418
      vertex -203 200 -377.82
    endloop
  endfacet
  facet normal 0 1 -0
    outer loop
      vertex 185.155 200 -418
      vertex -203 200 -253.311
      vertex 203 200 -401.083
    endloop
  endfacet
  facet normal 0 1 0
    outer loop
      vertex -203 200 -253.311
      vertex 185.155 200 -418
      vertex -203 200 -276.723
    endloop
  endfacet
  facet normal 0 1 0
    outer loop
      vertex 203 200 -299.986
      vertex -203 200 -175.626
      vertex -203 200 -152.214
    endloop
  endfacet
  facet normal 0 1 0
    outer loop
      vertex -203 200 -175.626
      vertex 203 200 -299.986
      vertex 203 200 -323.398
    endloop
  endfacet
  facet normal 0 1 0
    outer loop
      vertex 203 200 -198.889
      vertex -203 200 -74.5293
      vertex -203 200 -51.1174
    endloop
  endfacet
  facet normal 0 1 0
    outer loop
      vertex -203 200 -74.5293
      vertex 203 200 -198.889
      vertex 203 200 -222.301
    endloop
  endfacet
  facet normal 0 1 0
    outer loop
      vertex 203 200 -97.7924
      vertex -203 200 26.5676
      vertex -203 200 49.9795
    endloop
  endfacet
  facet normal 0 1 0
    outer loop
      vertex -203 200 26.5676
      vertex 203 200 -97.7924
      vertex 203 200 -121.204
    endloop
  endfacet
  facet normal 0 1 0
    outer loop
      vertex 203 200 3.30444
      vertex -203 200 127.664
      vertex -203 200 151.076
    endloop
  endfacet
  facet normal 0 1 0
    outer loop
      vertex -203 200 127.664
      vertex 203 200 3.30444
      vertex 203 200 -20.1075
    endloop
  endfacet
  facet normal 0 1 -0
    outer loop
      vertex 203 200 80.9894
      vertex -1.95817 200 179
      vertex 203 200 104.401
    endloop
  endfacet
  facet normal 0 1 0
    outer loop
      vertex -1.95817 200 179
      vertex 203 200 80.9894
      vertex -66.2819 200 179
    endloop
  endfacet
  facet normal 0 1 0
    outer loop
      vertex 225 200 440
      vertex 203 200 418
      vertex -225 200 440
    endloop
  endfacet
  facet normal 0 1 0
    outer loop
      vertex 225 200 440
      vertex 203 200 201
      vertex 203 200 418
    endloop
  endfacet
  facet normal 0 1 -0
    outer loop
      vertex -1.95817 200 179
      vertex -62.4027 200 201
      vertex 203 200 201
    endloop
  endfacet
  facet normal 0 1 0
    outer loop
      vertex -66.2819 200 179
      vertex -62.4027 200 201
      vertex -1.95817 200 179
    endloop
  endfacet
  facet normal 0 1 0
    outer loop
      vertex -1.95817 200 179
      vertex 203 200 201
      vertex 203 200 179
    endloop
  endfacet
  facet normal 0 1 0
    outer loop
      vertex 225 200 440
      vertex 203 200 179
      vertex 203 200 201
    endloop
  endfacet
  facet normal 0 1 0
    outer loop
      vertex 225 200 440
      vertex 203 200 104.401
      vertex 203 200 179
    endloop
  endfacet
  facet normal 0 1 0
    outer loop
      vertex 225 200 440
      vertex 203 200 80.9894
      vertex 203 200 104.401
    endloop
  endfacet
  facet normal 0 1 0
    outer loop
      vertex 225 200 440
      vertex 203 200 3.30444
      vertex 203 200 80.9894
    endloop
  endfacet
  facet normal 0 1 0
    outer loop
      vertex 225 200 440
      vertex 203 200 -20.1075
      vertex 203 200 3.30444
    endloop
  endfacet
  facet normal 0 1 -0
    outer loop
      vertex 225 200 -440
      vertex 203 200 -20.1075
      vertex 225 200 440
    endloop
  endfacet
  facet normal 0 1 0
    outer loop
      vertex 203 200 -20.1075
      vertex 225 200 -440
      vertex 203 200 -97.7924
    endloop
  endfacet
  facet normal 0 1 0
    outer loop
      vertex 203 200 -97.7924
      vertex 225 200 -440
      vertex 203 200 -121.204
    endloop
  endfacet
  facet normal 0 1 0
    outer loop
      vertex 203 200 -121.204
      vertex 225 200 -440
      vertex 203 200 -198.889
    endloop
  endfacet
  facet normal 0 1 0
    outer loop
      vertex 203 200 -198.889
      vertex 225 200 -440
      vertex 203 200 -222.301
    endloop
  endfacet
  facet normal 0 1 0
    outer loop
      vertex 203 200 -222.301
      vertex 225 200 -440
      vertex 203 200 -299.986
    endloop
  endfacet
  facet normal 0 1 0
    outer loop
      vertex 203 200 -299.986
      vertex 225 200 -440
      vertex 203 200 -323.398
    endloop
  endfacet
  facet normal 0 1 0
    outer loop
      vertex 225 200 -440
      vertex -28.2827 200 -418
      vertex 185.155 200 -418
    endloop
  endfacet
  facet normal 0 1 0
    outer loop
      vertex -225 200 -440
      vertex -28.2827 200 -418
      vertex 225 200 -440
    endloop
  endfacet
  facet normal 0 1 0
    outer loop
      vertex -28.2827 200 -418
      vertex -225 200 -440
      vertex -92.6064 200 -418
    endloop
  endfacet
  facet normal 0 1 0
    outer loop
      vertex 203 200 -401.083
      vertex 225 200 -440
      vertex 185.155 200 -418
    endloop
  endfacet
  facet normal 0 1 0
    outer loop
      vertex 203 200 -323.398
      vertex 225 200 -440
      vertex 203 200 -401.083
    endloop
  endfacet
  facet normal 0 1 -0
    outer loop
      vertex -203 200 418
      vertex -225 200 440
      vertex 203 200 418
    endloop
  endfacet
  facet normal 0 1 -0
    outer loop
      vertex -203 200 201
      vertex -225 200 440
      vertex -203 200 418
    endloop
  endfacet
  facet normal 0 1 0
    outer loop
      vertex -62.4027 200 201
      vertex -66.2819 200 179
      vertex -126.726 200 201
    endloop
  endfacet
  facet normal 0 1 0
    outer loop
      vertex -203 200 179
      vertex -126.726 200 201
      vertex -66.2819 200 179
    endloop
  endfacet
  facet normal 0 1 0
    outer loop
      vertex -126.726 200 201
      vertex -203 200 179
      vertex -203 200 201
    endloop
  endfacet
  facet normal 0 1 -0
    outer loop
      vertex -203 200 179
      vertex -225 200 440
      vertex -203 200 201
    endloop
  endfacet
  facet normal 0 1 -0
    outer loop
      vertex -203 200 151.076
      vertex -225 200 440
      vertex -203 200 179
    endloop
  endfacet
  facet normal 0 1 -0
    outer loop
      vertex -203 200 127.664
      vertex -225 200 440
      vertex -203 200 151.076
    endloop
  endfacet
  facet normal 0 1 -0
    outer loop
      vertex -203 200 49.9795
      vertex -225 200 440
      vertex -203 200 127.664
    endloop
  endfacet
  facet normal 0 1 -0
    outer loop
      vertex -203 200 26.5676
      vertex -225 200 440
      vertex -203 200 49.9795
    endloop
  endfacet
  facet normal 0 1 -0
    outer loop
      vertex -203 200 -51.1174
      vertex -225 200 440
      vertex -203 200 26.5676
    endloop
  endfacet
  facet normal 0 1 0
    outer loop
      vertex -225 200 -440
      vertex -203 200 -51.1174
      vertex -203 200 -74.5293
    endloop
  endfacet
  facet normal 0 1 0
    outer loop
      vertex -225 200 -440
      vertex -203 200 -74.5293
      vertex -203 200 -152.214
    endloop
  endfacet
  facet normal 0 1 0
    outer loop
      vertex -225 200 -440
      vertex -203 200 -152.214
      vertex -203 200 -175.626
    endloop
  endfacet
  facet normal 0 1 0
    outer loop
      vertex -225 200 -440
      vertex -203 200 -175.626
      vertex -203 200 -253.311
    endloop
  endfacet
  facet normal 0 1 0
    outer loop
      vertex -225 200 -440
      vertex -203 200 -253.311
      vertex -203 200 -276.723
    endloop
  endfacet
  facet normal 0 1 0
    outer loop
      vertex -225 200 -440
      vertex -203 200 -276.723
      vertex -203 200 -354.408
    endloop
  endfacet
  facet normal 0 1 0
    outer loop
      vertex -225 200 -440
      vertex -203 200 -354.408
      vertex -203 200 -377.82
    endloop
  endfacet
  facet normal 0 1 0
    outer loop
      vertex -225 200 -440
      vertex -203 200 -377.82
      vertex -203 200 -418
    endloop
  endfacet
  facet normal 0 1 0
    outer loop
      vertex -203 200 -51.1174
      vertex -225 200 -440
      vertex -225 200 440
    endloop
  endfacet
  facet normal 0 1 0
    outer loop
      vertex -92.6064 200 -418
      vertex -225 200 -440
      vertex -203 200 -418
    endloop
  endfacet
  facet normal 0 1 0
    outer loop
      vertex -126.726 200 201
      vertex -65.1501 200 202
      vertex -62.4027 200 201
    endloop
  endfacet
  facet normal 0 1 0
    outer loop
      vertex -65.1501 200 202
      vertex -126.726 200 201
      vertex -129.474 200 202
    endloop
  endfacet
  facet normal 1 -0 0
    outer loop
      vertex -203 -200 127.664
      vertex -203 200 49.9795
      vertex -203 200 127.664
    endloop
  endfacet
  facet normal 1 0 0
    outer loop
      vertex -203 200 49.9795
      vertex -203 -200 127.664
      vertex -203 -200 49.9795
    endloop
  endfacet
  facet normal 1 -0 0
    outer loop
      vertex -203 -200 26.5676
      vertex -203 200 -51.1174
      vertex -203 200 26.5676
    endloop
  endfacet
  facet normal 1 0 0
    outer loop
      vertex -203 200 -51.1174
      vertex -203 -200 26.5676
      vertex -203 -200 -51.1174
    endloop
  endfacet
  facet normal 1 -0 0
    outer loop
      vertex -203 -200 -74.5293
      vertex -203 200 -152.214
      vertex -203 200 -74.5293
    endloop
  endfacet
  facet normal 1 0 0
    outer loop
      vertex -203 200 -152.214
      vertex -203 -200 -74.5293
      vertex -203 -200 -152.214
    endloop
  endfacet
  facet normal 1 -0 0
    outer loop
      vertex -203 -200 -175.626
      vertex -203 200 -253.311
      vertex -203 200 -175.626
    endloop
  endfacet
  facet normal 1 0 0
    outer loop
      vertex -203 200 -253.311
      vertex -203 -200 -175.626
      vertex -203 -200 -253.311
    endloop
  endfacet
  facet normal 1 -0 0
    outer loop
      vertex -203 -200 179
      vertex -203 200 151.076
      vertex -203 200 179
    endloop
  endfacet
  facet normal 1 0 0
    outer loop
      vertex -203 200 151.076
      vertex -203 -200 179
      vertex -203 -200 151.076
    endloop
  endfacet
  facet normal 1 -0 0
    outer loop
      vertex -203 -200 -276.723
      vertex -203 200 -354.408
      vertex -203 200 -276.723
    endloop
  endfacet
  facet normal 1 0 0
    outer loop
      vertex -203 200 -354.408
      vertex -203 -200 -276.723
      vertex -203 -200 -354.408
    endloop
  endfacet
  facet normal 1 -0 0
    outer loop
      vertex -203 -200 -377.82
      vertex -203 200 -418
      vertex -203 200 -377.82
    endloop
  endfacet
  facet normal 1 0 0
    outer loop
      vertex -203 200 -418
      vertex -203 -200 -377.82
      vertex -203 -200 -418
    endloop
  endfacet
  facet normal 1 -0 0
    outer loop
      vertex -203 -200 418
      vertex -203 200 201
      vertex -203 200 418
    endloop
  endfacet
  facet normal 1 0 0
    outer loop
      vertex -203 200 201
      vertex -203 -200 418
      vertex -203 -200 201
    endloop
  endfacet
  facet normal 0 0 -1
    outer loop
      vertex -203 -200 418
      vertex 203 200 418
      vertex 203 -200 418
    endloop
  endfacet
  facet normal -0 0 -1
    outer loop
      vertex 203 200 418
      vertex -203 -200 418
      vertex -203 200 418
    endloop
  endfacet
  facet normal -1 0 0
    outer loop
      vertex 203 -200 -97.7924
      vertex 203 200 -20.1075
      vertex 203 200 -97.7924
    endloop
  endfacet
  facet normal -1 -0 0
    outer loop
      vertex 203 200 -20.1075
      vertex 203 -200 -97.7924
      vertex 203 -200 -20.1075
    endloop
  endfacet
  facet normal -1 0 0
    outer loop
      vertex 203 -200 -198.889
      vertex 203 200 -121.204
      vertex 203 200 -198.889
    endloop
  endfacet
  facet normal -1 -0 0
    outer loop
      vertex 203 200 -121.204
      vertex 203 -200 -198.889
      vertex 203 -200 -121.204
    endloop
  endfacet
  facet normal -1 0 0
    outer loop
      vertex 203 -200 -299.986
      vertex 203 200 -222.301
      vertex 203 200 -299.986
    endloop
  endfacet
  facet normal -1 -0 0
    outer loop
      vertex 203 200 -222.301
      vertex 203 -200 -299.986
      vertex 203 -200 -222.301
    endloop
  endfacet
  facet normal -1 0 0
    outer loop
      vertex 203 -200 -401.083
      vertex 203 200 -323.398
      vertex 203 200 -401.083
    endloop
  endfacet
  facet normal -1 -0 0
    outer loop
      vertex 203 200 -323.398
      vertex 203 -200 -401.083
      vertex 203 -200 -323.398
    endloop
  endfacet
  facet normal -1 0 0
    outer loop
      vertex 203 -200 3.30444
      vertex 203 200 80.9894
      vertex 203 200 3.30444
    endloop
  endfacet
  facet normal -1 -0 0
    outer loop
      vertex 203 200 80.9894
      vertex 203 -200 3.30444
      vertex 203 -200 80.9894
    endloop
  endfacet
  facet normal -1 0 0
    outer loop
      vertex 203 -200 104.401
      vertex 203 200 179
      vertex 203 200 104.401
    endloop
  endfacet
  facet normal -1 -0 0
    outer loop
      vertex 203 200 179
      vertex 203 -200 104.401
      vertex 203 -200 179
    endloop
  endfacet
  facet normal -1 0 0
    outer loop
      vertex 203 -200 201
      vertex 203 200 418
      vertex 203 200 201
    endloop
  endfacet
  facet normal -1 -0 0
    outer loop
      vertex 203 200 418
      vertex 203 -200 201
      vertex 203 -200 418
    endloop
  endfacet
  facet normal -0 0 1
    outer loop
      vertex -28.2827 200 -418
      vertex 185.155 -200 -418
      vertex 185.155 200 -418
    endloop
  endfacet
  facet normal 0 0 1
    outer loop
      vertex 185.155 -200 -418
      vertex -28.2827 200 -418
      vertex -28.2827 -200 -418
    endloop
  endfacet
  facet normal -0 0 1
    outer loop
      vertex -203 200 -418
      vertex -92.6064 -200 -418
      vertex -92.6064 200 -418
    endloop
  endfacet
  facet normal 0 0 1
    outer loop
      vertex -92.6064 -200 -418
      vertex -203 200 -418
      vertex -203 -200 -418
    endloop
  endfacet
  facet normal 0.34202 0 0.939693
    outer loop
      vertex -203 200 -354.408
      vertex -28.2827 -200 -418
      vertex -28.2827 200 -418
    endloop
  endfacet
  facet normal 0.34202 0 0.939693
    outer loop
      vertex -28.2827 -200 -418
      vertex -203 200 -354.408
      vertex -203 -200 -354.408
    endloop
  endfacet
  facet normal -0.34202 0 -0.939693
    outer loop
      vertex -203 -200 -377.82
      vertex -92.6064 200 -418
      vertex -92.6064 -200 -418
    endloop
  endfacet
  facet normal -0.34202 0 -0.939693
    outer loop
      vertex -92.6064 200 -418
      vertex -203 -200 -377.82
      vertex -203 200 -377.82
    endloop
  endfacet
  facet normal 0.34202 0 0.939693
    outer loop
      vertex -203 200 -253.311
      vertex 203 -200 -401.083
      vertex 203 200 -401.083
    endloop
  endfacet
  facet normal 0.34202 0 0.939693
    outer loop
      vertex 203 -200 -401.083
      vertex -203 200 -253.311
      vertex -203 -200 -253.311
    endloop
  endfacet
  facet normal -0.34202 0 -0.939693
    outer loop
      vertex -203 -200 -276.723
      vertex 185.155 200 -418
      vertex 185.155 -200 -418
    endloop
  endfacet
  facet normal -0.34202 0 -0.939693
    outer loop
      vertex 185.155 200 -418
      vertex -203 -200 -276.723
      vertex -203 200 -276.723
    endloop
  endfacet
  facet normal 0.34202 0 0.939693
    outer loop
      vertex -203 200 -152.214
      vertex 203 -200 -299.986
      vertex 203 200 -299.986
    endloop
  endfacet
  facet normal 0.34202 0 0.939693
    outer loop
      vertex 203 -200 -299.986
      vertex -203 200 -152.214
      vertex -203 -200 -152.214
    endloop
  endfacet
  facet normal -0.34202 0 -0.939693
    outer loop
      vertex -203 -200 -175.626
      vertex 203 200 -323.398
      vertex 203 -200 -323.398
    endloop
  endfacet
  facet normal -0.34202 0 -0.939693
    outer loop
      vertex 203 200 -323.398
      vertex -203 -200 -175.626
      vertex -203 200 -175.626
    endloop
  endfacet
  facet normal 0.34202 0 0.939693
    outer loop
      vertex -203 200 -51.1174
      vertex 203 -200 -198.889
      vertex 203 200 -198.889
    endloop
  endfacet
  facet normal 0.34202 0 0.939693
    outer loop
      vertex 203 -200 -198.889
      vertex -203 200 -51.1174
      vertex -203 -200 -51.1174
    endloop
  endfacet
  facet normal -0.34202 0 -0.939693
    outer loop
      vertex -203 -200 -74.5293
      vertex 203 200 -222.301
      vertex 203 -200 -222.301
    endloop
  endfacet
  facet normal -0.34202 0 -0.939693
    outer loop
      vertex 203 200 -222.301
      vertex -203 -200 -74.5293
      vertex -203 200 -74.5293
    endloop
  endfacet
  facet normal 0.34202 0 0.939693
    outer loop
      vertex -203 200 49.9795
      vertex 203 -200 -97.7924
      vertex 203 200 -97.7924
    endloop
  endfacet
  facet normal 0.34202 0 0.939693
    outer loop
      vertex 203 -200 -97.7924
      vertex -203 200 49.9795
      vertex -203 -200 49.9795
    endloop
  endfacet
  facet normal -0.34202 0 -0.939693
    outer loop
      vertex -203 -200 26.5676
      vertex 203 200 -121.204
      vertex 203 -200 -121.204
    endloop
  endfacet
  facet normal -0.34202 0 -0.939693
    outer loop
      vertex 203 200 -121.204
      vertex -203 -200 26.5676
      vertex -203 200 26.5676
    endloop
  endfacet
  facet normal 0.34202 0 0.939693
    outer loop
      vertex -203 200 151.076
      vertex 203 -200 3.30444
      vertex 203 200 3.30444
    endloop
  endfacet
  facet normal 0.34202 0 0.939693
    outer loop
      vertex 203 -200 3.30444
      vertex -203 200 151.076
      vertex -203 -200 151.076
    endloop
  endfacet
  facet normal -0.34202 0 -0.939693
    outer loop
      vertex -203 -200 127.664
      vertex 203 200 -20.1075
      vertex 203 -200 -20.1075
    endloop
  endfacet
  facet normal -0.34202 0 -0.939693
    outer loop
      vertex 203 200 -20.1075
      vertex -203 -200 127.664
      vertex -203 200 127.664
    endloop
  endfacet
  facet normal 0.34202 0 0.939693
    outer loop
      vertex -65.1501 200 202
      vertex -62.4027 -200 201
      vertex -62.4027 200 201
    endloop
  endfacet
  facet normal 0.34202 0 0.939693
    outer loop
      vertex -62.4027 -200 201
      vertex -65.1501 200 202
      vertex -65.1501 -200 202
    endloop
  endfacet
  facet normal 0.34202 0 0.939693
    outer loop
      vertex -1.95817 200 179
      vertex 203 -200 104.401
      vertex 203 200 104.401
    endloop
  endfacet
  facet normal 0.34202 0 0.939693
    outer loop
      vertex 203 -200 104.401
      vertex -1.95817 200 179
      vertex -1.95817 -200 179
    endloop
  endfacet
  facet normal -0.34202 0 -0.939693
    outer loop
      vertex -129.474 -200 202
      vertex -126.726 200 201
      vertex -126.726 -200 201
    endloop
  endfacet
  facet normal -0.34202 0 -0.939693
    outer loop
      vertex -126.726 200 201
      vertex -129.474 -200 202
      vertex -129.474 200 202
    endloop
  endfacet
  facet normal -0.34202 0 -0.939693
    outer loop
      vertex -66.2819 -200 179
      vertex 203 200 80.9894
      vertex 203 -200 80.9894
    endloop
  endfacet
  facet normal -0.34202 0 -0.939693
    outer loop
      vertex 203 200 80.9894
      vertex -66.2819 -200 179
      vertex -66.2819 200 179
    endloop
  endfacet
  facet normal -0 0 1
    outer loop
      vertex -129.474 200 202
      vertex -65.1501 -200 202
      vertex -65.1501 200 202
    endloop
  endfacet
  facet normal 0 0 1
    outer loop
      vertex -65.1501 -200 202
      vertex -129.474 200 202
      vertex -129.474 -200 202
    endloop
  endfacet
  facet normal -0 0 1
    outer loop
      vertex -203 200 201
      vertex -126.726 -200 201
      vertex -126.726 200 201
    endloop
  endfacet
  facet normal 0 0 1
    outer loop
      vertex -126.726 -200 201
      vertex -203 200 201
      vertex -203 -200 201
    endloop
  endfacet
  facet normal -0 0 1
    outer loop
      vertex -62.4027 200 201
      vertex 203 -200 201
      vertex 203 200 201
    endloop
  endfacet
  facet normal 0 0 1
    outer loop
      vertex 203 -200 201
      vertex -62.4027 200 201
      vertex -62.4027 -200 201
    endloop
  endfacet
  facet normal 0 0 -1
    outer loop
      vertex -203 -200 179
      vertex -66.2819 200 179
      vertex -66.2819 -200 179
    endloop
  endfacet
  facet normal -0 0 -1
    outer loop
      vertex -66.2819 200 179
      vertex -203 -200 179
      vertex -203 200 179
    endloop
  endfacet
  facet normal 0 0 -1
    outer loop
      vertex -1.95817 -200 179
      vertex 203 200 179
      vertex 203 -200 179
    endloop
  endfacet
  facet normal -0 0 -1
    outer loop
      vertex 203 200 179
      vertex -1.95817 -200 179
      vertex -1.95817 200 179
    endloop
  endfacet
endsolid OpenSCAD_Model
