solid OpenSCAD_Model
  facet normal -1 0 0
    outer loop
      vertex -225 -200 -440
      vertex -225 200 440
      vertex -225 200 -440
    endloop
  endfacet
  facet normal -1 -0 0
    outer loop
      vertex -225 200 440
      vertex -225 -200 -440
      vertex -225 -200 440
    endloop
  endfacet
  facet normal -0 0 1
    outer loop
      vertex -225 200 440
      vertex 225 -200 440
      vertex 225 200 440
    endloop
  endfacet
  facet normal 0 0 1
    outer loop
      vertex 225 -200 440
      vertex -225 200 440
      vertex -225 -200 440
    endloop
  endfacet
  facet normal 1 -0 0
    outer loop
      vertex 225 -200 440
      vertex 225 200 -440
      vertex 225 200 440
    endloop
  endfacet
  facet normal 1 0 0
    outer loop
      vertex 225 200 -440
      vertex 225 -200 440
      vertex 225 -200 -440
    endloop
  endfacet
  facet normal 0 0 -1
    outer loop
      vertex -225 -200 -440
      vertex 225 200 -440
      vertex 225 -200 -440
    endloop
  endfacet
  facet normal -0 0 -1
    outer loop
      vertex 225 200 -440
      vertex -225 -200 -440
      vertex -225 200 -440
    endloop
  endfacet
  facet normal 0 -1 0
    outer loop
      vertex -60.1051 -200 -418
      vertex -203 -200 -310.096
      vertex -203 -200 -335.5
    endloop
  endfacet
  facet normal 0 -1 0
    outer loop
      vertex -203 -200 -310.096
      vertex -60.1051 -200 -418
      vertex -16.1051 -200 -418
    endloop
  endfacet
  facet normal 0 -1 0
    outer loop
      vertex 129.895 -200 -418
      vertex -203 -200 -200.4
      vertex -203 -200 -225.803
    endloop
  endfacet
  facet normal 0 -1 0
    outer loop
      vertex -203 -200 -200.4
      vertex 129.895 -200 -418
      vertex 173.895 -200 -418
    endloop
  endfacet
  facet normal 0 -1 0
    outer loop
      vertex -203 -200 -116.106
      vertex 203 -200 -325.107
      vertex -203 -200 -90.7031
    endloop
  endfacet
  facet normal -0 -1 -0
    outer loop
      vertex 203 -200 -325.107
      vertex -203 -200 -116.106
      vertex 203 -200 -350.511
    endloop
  endfacet
  facet normal 0 -1 0
    outer loop
      vertex -203 -200 -6.40995
      vertex 203 -200 -215.411
      vertex -203 -200 18.9935
    endloop
  endfacet
  facet normal -0 -1 -0
    outer loop
      vertex 203 -200 -215.411
      vertex -203 -200 -6.40995
      vertex 203 -200 -240.814
    endloop
  endfacet
  facet normal 0 -1 0
    outer loop
      vertex -203 -200 103.287
      vertex 203 -200 -105.714
      vertex -203 -200 128.69
    endloop
  endfacet
  facet normal -0 -1 -0
    outer loop
      vertex 203 -200 -105.714
      vertex -203 -200 103.287
      vertex 203 -200 -131.118
    endloop
  endfacet
  facet normal 0 -1 0
    outer loop
      vertex 203 -200 88.2755
      vertex 89.8605 -200 179
      vertex 45.8605 -200 179
    endloop
  endfacet
  facet normal 0 -1 0
    outer loop
      vertex 89.8605 -200 179
      vertex 203 -200 88.2755
      vertex 203 -200 113.679
    endloop
  endfacet
  facet normal 0 -1 0
    outer loop
      vertex 203 -200 -21.4211
      vertex -100.139 -200 179
      vertex -144.139 -200 179
    endloop
  endfacet
  facet normal 0 -1 0
    outer loop
      vertex -100.139 -200 179
      vertex 203 -200 -21.4211
      vertex 203 -200 3.98236
    endloop
  endfacet
  facet normal 0 -1 0
    outer loop
      vertex -225 -200 440
      vertex -203 -200 418
      vertex 225 -200 440
    endloop
  endfacet
  facet normal 0 -1 0
    outer loop
      vertex -225 -200 440
      vertex -203 -200 201
      vertex -203 -200 418
    endloop
  endfacet
  facet normal 0 -1 0
    outer loop
      vertex -203 -200 179
      vertex -182.245 -200 201
      vertex -203 -200 201
    endloop
  endfacet
  facet normal 0 -1 0
    outer loop
      vertex -182.245 -200 201
      vertex -144.139 -200 179
      vertex -138.245 -200 201
    endloop
  endfacet
  facet normal 0 -1 0
    outer loop
      vertex -138.245 -200 201
      vertex -100.139 -200 179
      vertex 7.75543 -200 201
    endloop
  endfacet
  facet normal 0 -1 0
    outer loop
      vertex 45.8605 -200 179
      vertex 7.75543 -200 201
      vertex -100.139 -200 179
    endloop
  endfacet
  facet normal 0 -1 -0
    outer loop
      vertex -182.245 -200 201
      vertex -203 -200 179
      vertex -144.139 -200 179
    endloop
  endfacet
  facet normal 0 -1 0
    outer loop
      vertex -225 -200 440
      vertex -203 -200 179
      vertex -203 -200 201
    endloop
  endfacet
  facet normal 0 -1 0
    outer loop
      vertex -225 -200 440
      vertex -203 -200 128.69
      vertex -203 -200 179
    endloop
  endfacet
  facet normal 0 -1 0
    outer loop
      vertex -225 -200 440
      vertex -203 -200 103.287
      vertex -203 -200 128.69
    endloop
  endfacet
  facet normal 0 -1 0
    outer loop
      vertex -225 -200 440
      vertex -203 -200 18.9935
      vertex -203 -200 103.287
    endloop
  endfacet
  facet normal 0 -1 0
    outer loop
      vertex -225 -200 440
      vertex -203 -200 -6.40995
      vertex -203 -200 18.9935
    endloop
  endfacet
  facet normal 0 -1 0
    outer loop
      vertex -225 -200 -440
      vertex -203 -200 -6.40995
      vertex -225 -200 440
    endloop
  endfacet
  facet normal 0 -1 -0
    outer loop
      vertex -203 -200 -6.40995
      vertex -225 -200 -440
      vertex -203 -200 -90.7031
    endloop
  endfacet
  facet normal 0 -1 -0
    outer loop
      vertex -203 -200 -90.7031
      vertex -225 -200 -440
      vertex -203 -200 -116.106
    endloop
  endfacet
  facet normal 0 -1 -0
    outer loop
      vertex -203 -200 -116.106
      vertex -225 -200 -440
      vertex -203 -200 -200.4
    endloop
  endfacet
  facet normal 0 -1 -0
    outer loop
      vertex -203 -200 -200.4
      vertex -225 -200 -440
      vertex -203 -200 -225.803
    endloop
  endfacet
  facet normal 0 -1 -0
    outer loop
      vertex -203 -200 -225.803
      vertex -225 -200 -440
      vertex -203 -200 -310.096
    endloop
  endfacet
  facet normal 0 -1 -0
    outer loop
      vertex -203 -200 -310.096
      vertex -225 -200 -440
      vertex -203 -200 -335.5
    endloop
  endfacet
  facet normal 0 -1 0
    outer loop
      vertex -225 -200 -440
      vertex -60.1051 -200 -418
      vertex -203 -200 -418
    endloop
  endfacet
  facet normal 0 -1 -0
    outer loop
      vertex -60.1051 -200 -418
      vertex -225 -200 -440
      vertex -16.1051 -200 -418
    endloop
  endfacet
  facet normal 0 -1 0
    outer loop
      vertex 225 -200 -440
      vertex -16.1051 -200 -418
      vertex -225 -200 -440
    endloop
  endfacet
  facet normal 0 -1 0
    outer loop
      vertex -16.1051 -200 -418
      vertex 225 -200 -440
      vertex 129.895 -200 -418
    endloop
  endfacet
  facet normal 0 -1 0
    outer loop
      vertex 129.895 -200 -418
      vertex 225 -200 -440
      vertex 173.895 -200 -418
    endloop
  endfacet
  facet normal 0 -1 -0
    outer loop
      vertex -203 -200 -335.5
      vertex -225 -200 -440
      vertex -203 -200 -418
    endloop
  endfacet
  facet normal 0 -1 0
    outer loop
      vertex 203 -200 418
      vertex 225 -200 440
      vertex -203 -200 418
    endloop
  endfacet
  facet normal 0 -1 0
    outer loop
      vertex 203 -200 201
      vertex 225 -200 440
      vertex 203 -200 418
    endloop
  endfacet
  facet normal 0 -1 -0
    outer loop
      vertex -138.245 -200 201
      vertex -144.139 -200 179
      vertex -100.139 -200 179
    endloop
  endfacet
  facet normal 0 -1 0
    outer loop
      vertex 7.75543 -200 201
      vertex 45.8605 -200 179
      vertex 51.7554 -200 201
    endloop
  endfacet
  facet normal 0 -1 0
    outer loop
      vertex 89.8605 -200 179
      vertex 51.7554 -200 201
      vertex 45.8605 -200 179
    endloop
  endfacet
  facet normal 0 -1 0
    outer loop
      vertex 51.7554 -200 201
      vertex 89.8605 -200 179
      vertex 203 -200 201
    endloop
  endfacet
  facet normal 0 -1 0
    outer loop
      vertex 203 -200 179
      vertex 203 -200 201
      vertex 89.8605 -200 179
    endloop
  endfacet
  facet normal 0 -1 0
    outer loop
      vertex 203 -200 179
      vertex 225 -200 440
      vertex 203 -200 201
    endloop
  endfacet
  facet normal 0 -1 0
    outer loop
      vertex 203 -200 113.679
      vertex 225 -200 440
      vertex 203 -200 179
    endloop
  endfacet
  facet normal 0 -1 0
    outer loop
      vertex 203 -200 88.2755
      vertex 225 -200 440
      vertex 203 -200 113.679
    endloop
  endfacet
  facet normal 0 -1 0
    outer loop
      vertex 203 -200 3.98236
      vertex 225 -200 440
      vertex 203 -200 88.2755
    endloop
  endfacet
  facet normal 0 -1 0
    outer loop
      vertex 203 -200 -21.4211
      vertex 225 -200 440
      vertex 203 -200 3.98236
    endloop
  endfacet
  facet normal 0 -1 0
    outer loop
      vertex 225 -200 -440
      vertex 203 -200 -21.4211
      vertex 203 -200 -105.714
    endloop
  endfacet
  facet normal 0 -1 0
    outer loop
      vertex 225 -200 -440
      vertex 203 -200 -105.714
      vertex 203 -200 -131.118
    endloop
  endfacet
  facet normal 0 -1 0
    outer loop
      vertex 225 -200 -440
      vertex 203 -200 -131.118
      vertex 203 -200 -215.411
    endloop
  endfacet
  facet normal 0 -1 0
    outer loop
      vertex 225 -200 -440
      vertex 203 -200 -215.411
      vertex 203 -200 -240.814
    endloop
  endfacet
  facet normal 0 -1 0
    outer loop
      vertex 225 -200 -440
      vertex 203 -200 -240.814
      vertex 203 -200 -325.107
    endloop
  endfacet
  facet normal 0 -1 0
    outer loop
      vertex 225 -200 -440
      vertex 203 -200 -325.107
      vertex 203 -200 -350.511
    endloop
  endfacet
  facet normal 0 -1 0
    outer loop
      vertex 225 -200 -440
      vertex 203 -200 -350.511
      vertex 203 -200 -418
    endloop
  endfacet
  facet normal 0 -1 0
    outer loop
      vertex 203 -200 -21.4211
      vertex 225 -200 -440
      vertex 225 -200 440
    endloop
  endfacet
  facet normal 0 -1 0
    outer loop
      vertex 173.895 -200 -418
      vertex 225 -200 -440
      vertex 203 -200 -418
    endloop
  endfacet
  facet normal 0 -1 0
    outer loop
      vertex -182.245 -200 201
      vertex -139.977 -200 202
      vertex -183.977 -200 202
    endloop
  endfacet
  facet normal 0 -1 -0
    outer loop
      vertex -139.977 -200 202
      vertex -182.245 -200 201
      vertex -138.245 -200 201
    endloop
  endfacet
  facet normal 0 -1 0
    outer loop
      vertex 7.75543 -200 201
      vertex 50.0234 -200 202
      vertex 6.02338 -200 202
    endloop
  endfacet
  facet normal 0 -1 -0
    outer loop
      vertex 50.0234 -200 202
      vertex 7.75543 -200 201
      vertex 51.7554 -200 201
    endloop
  endfacet
  facet normal 0 1 -0
    outer loop
      vertex -60.1051 200 -418
      vertex -203 200 -310.096
      vertex -16.1051 200 -418
    endloop
  endfacet
  facet normal 0 1 0
    outer loop
      vertex -203 200 -310.096
      vertex -60.1051 200 -418
      vertex -203 200 -335.5
    endloop
  endfacet
  facet normal 0 1 -0
    outer loop
      vertex 129.895 200 -418
      vertex -203 200 -200.4
      vertex 173.895 200 -418
    endloop
  endfacet
  facet normal 0 1 0
    outer loop
      vertex -203 200 -200.4
      vertex 129.895 200 -418
      vertex -203 200 -225.803
    endloop
  endfacet
  facet normal 0 1 0
    outer loop
      vertex 203 200 -325.107
      vertex -203 200 -116.106
      vertex -203 200 -90.7031
    endloop
  endfacet
  facet normal 0 1 0
    outer loop
      vertex -203 200 -116.106
      vertex 203 200 -325.107
      vertex 203 200 -350.511
    endloop
  endfacet
  facet normal 0 1 0
    outer loop
      vertex 203 200 -215.411
      vertex -203 200 -6.40995
      vertex -203 200 18.9935
    endloop
  endfacet
  facet normal 0 1 0
    outer loop
      vertex -203 200 -6.40995
      vertex 203 200 -215.411
      vertex 203 200 -240.814
    endloop
  endfacet
  facet normal 0 1 0
    outer loop
      vertex 203 200 -105.714
      vertex -203 200 103.287
      vertex -203 200 128.69
    endloop
  endfacet
  facet normal 0 1 0
    outer loop
      vertex -203 200 103.287
      vertex 203 200 -105.714
      vertex 203 200 -131.118
    endloop
  endfacet
  facet normal 0 1 -0
    outer loop
      vertex 203 200 -21.4211
      vertex -100.139 200 179
      vertex 203 200 3.98236
    endloop
  endfacet
  facet normal 0 1 0
    outer loop
      vertex -100.139 200 179
      vertex 203 200 -21.4211
      vertex -144.139 200 179
    endloop
  endfacet
  facet normal 0 1 -0
    outer loop
      vertex 203 200 88.2755
      vertex 89.8605 200 179
      vertex 203 200 113.679
    endloop
  endfacet
  facet normal 0 1 0
    outer loop
      vertex 89.8605 200 179
      vertex 203 200 88.2755
      vertex 45.8605 200 179
    endloop
  endfacet
  facet normal 0 1 0
    outer loop
      vertex 225 200 440
      vertex 203 200 418
      vertex -225 200 440
    endloop
  endfacet
  facet normal 0 1 0
    outer loop
      vertex 225 200 440
      vertex 203 200 201
      vertex 203 200 418
    endloop
  endfacet
  facet normal 0 1 -0
    outer loop
      vertex 89.8605 200 179
      vertex 51.7554 200 201
      vertex 203 200 201
    endloop
  endfacet
  facet normal 0 1 0
    outer loop
      vertex 45.8605 200 179
      vertex 51.7554 200 201
      vertex 89.8605 200 179
    endloop
  endfacet
  facet normal 0 1 0
    outer loop
      vertex -100.139 200 179
      vertex 7.75543 200 201
      vertex 45.8605 200 179
    endloop
  endfacet
  facet normal 0 1 0
    outer loop
      vertex 7.75543 200 201
      vertex -100.139 200 179
      vertex -138.245 200 201
    endloop
  endfacet
  facet normal 0 1 0
    outer loop
      vertex 89.8605 200 179
      vertex 203 200 201
      vertex 203 200 179
    endloop
  endfacet
  facet normal 0 1 0
    outer loop
      vertex 225 200 440
      vertex 203 200 179
      vertex 203 200 201
    endloop
  endfacet
  facet normal 0 1 0
    outer loop
      vertex 225 200 440
      vertex 203 200 113.679
      vertex 203 200 179
    endloop
  endfacet
  facet normal 0 1 0
    outer loop
      vertex 225 200 440
      vertex 203 200 88.2755
      vertex 203 200 113.679
    endloop
  endfacet
  facet normal 0 1 0
    outer loop
      vertex 225 200 440
      vertex 203 200 3.98236
      vertex 203 200 88.2755
    endloop
  endfacet
  facet normal 0 1 0
    outer loop
      vertex 225 200 440
      vertex 203 200 -21.4211
      vertex 203 200 3.98236
    endloop
  endfacet
  facet normal 0 1 -0
    outer loop
      vertex 225 200 -440
      vertex 203 200 -21.4211
      vertex 225 200 440
    endloop
  endfacet
  facet normal 0 1 0
    outer loop
      vertex 203 200 -21.4211
      vertex 225 200 -440
      vertex 203 200 -105.714
    endloop
  endfacet
  facet normal 0 1 0
    outer loop
      vertex 203 200 -105.714
      vertex 225 200 -440
      vertex 203 200 -131.118
    endloop
  endfacet
  facet normal 0 1 0
    outer loop
      vertex 203 200 -131.118
      vertex 225 200 -440
      vertex 203 200 -215.411
    endloop
  endfacet
  facet normal 0 1 0
    outer loop
      vertex 203 200 -215.411
      vertex 225 200 -440
      vertex 203 200 -240.814
    endloop
  endfacet
  facet normal 0 1 0
    outer loop
      vertex 203 200 -240.814
      vertex 225 200 -440
      vertex 203 200 -325.107
    endloop
  endfacet
  facet normal 0 1 0
    outer loop
      vertex 203 200 -325.107
      vertex 225 200 -440
      vertex 203 200 -350.511
    endloop
  endfacet
  facet normal 0 1 0
    outer loop
      vertex 225 200 -440
      vertex 173.895 200 -418
      vertex 203 200 -418
    endloop
  endfacet
  facet normal 0 1 0
    outer loop
      vertex 173.895 200 -418
      vertex 225 200 -440
      vertex 129.895 200 -418
    endloop
  endfacet
  facet normal 0 1 0
    outer loop
      vertex 129.895 200 -418
      vertex 225 200 -440
      vertex -16.1051 200 -418
    endloop
  endfacet
  facet normal 0 1 0
    outer loop
      vertex -225 200 -440
      vertex -16.1051 200 -418
      vertex 225 200 -440
    endloop
  endfacet
  facet normal 0 1 0
    outer loop
      vertex -16.1051 200 -418
      vertex -225 200 -440
      vertex -60.1051 200 -418
    endloop
  endfacet
  facet normal 0 1 0
    outer loop
      vertex 203 200 -350.511
      vertex 225 200 -440
      vertex 203 200 -418
    endloop
  endfacet
  facet normal 0 1 -0
    outer loop
      vertex -203 200 418
      vertex -225 200 440
      vertex 203 200 418
    endloop
  endfacet
  facet normal 0 1 -0
    outer loop
      vertex -203 200 201
      vertex -225 200 440
      vertex -203 200 418
    endloop
  endfacet
  facet normal 0 1 0
    outer loop
      vertex 51.7554 200 201
      vertex 45.8605 200 179
      vertex 7.75543 200 201
    endloop
  endfacet
  facet normal 0 1 0
    outer loop
      vertex -144.139 200 179
      vertex -138.245 200 201
      vertex -100.139 200 179
    endloop
  endfacet
  facet normal 0 1 0
    outer loop
      vertex -138.245 200 201
      vertex -144.139 200 179
      vertex -182.245 200 201
    endloop
  endfacet
  facet normal 0 1 0
    outer loop
      vertex -203 200 179
      vertex -182.245 200 201
      vertex -144.139 200 179
    endloop
  endfacet
  facet normal 0 1 0
    outer loop
      vertex -182.245 200 201
      vertex -203 200 179
      vertex -203 200 201
    endloop
  endfacet
  facet normal 0 1 -0
    outer loop
      vertex -203 200 179
      vertex -225 200 440
      vertex -203 200 201
    endloop
  endfacet
  facet normal 0 1 -0
    outer loop
      vertex -203 200 128.69
      vertex -225 200 440
      vertex -203 200 179
    endloop
  endfacet
  facet normal 0 1 -0
    outer loop
      vertex -203 200 103.287
      vertex -225 200 440
      vertex -203 200 128.69
    endloop
  endfacet
  facet normal 0 1 -0
    outer loop
      vertex -203 200 18.9935
      vertex -225 200 440
      vertex -203 200 103.287
    endloop
  endfacet
  facet normal 0 1 -0
    outer loop
      vertex -203 200 -6.40995
      vertex -225 200 440
      vertex -203 200 18.9935
    endloop
  endfacet
  facet normal 0 1 0
    outer loop
      vertex -225 200 -440
      vertex -203 200 -6.40995
      vertex -203 200 -90.7031
    endloop
  endfacet
  facet normal 0 1 0
    outer loop
      vertex -225 200 -440
      vertex -203 200 -90.7031
      vertex -203 200 -116.106
    endloop
  endfacet
  facet normal 0 1 0
    outer loop
      vertex -225 200 -440
      vertex -203 200 -116.106
      vertex -203 200 -200.4
    endloop
  endfacet
  facet normal 0 1 0
    outer loop
      vertex -225 200 -440
      vertex -203 200 -200.4
      vertex -203 200 -225.803
    endloop
  endfacet
  facet normal 0 1 0
    outer loop
      vertex -225 200 -440
      vertex -203 200 -225.803
      vertex -203 200 -310.096
    endloop
  endfacet
  facet normal 0 1 0
    outer loop
      vertex -225 200 -440
      vertex -203 200 -310.096
      vertex -203 200 -335.5
    endloop
  endfacet
  facet normal 0 1 0
    outer loop
      vertex -225 200 -440
      vertex -203 200 -335.5
      vertex -203 200 -418
    endloop
  endfacet
  facet normal 0 1 0
    outer loop
      vertex -203 200 -6.40995
      vertex -225 200 -440
      vertex -225 200 440
    endloop
  endfacet
  facet normal 0 1 0
    outer loop
      vertex -60.1051 200 -418
      vertex -225 200 -440
      vertex -203 200 -418
    endloop
  endfacet
  facet normal 0 1 0
    outer loop
      vertex 7.75543 200 201
      vertex 50.0234 200 202
      vertex 51.7554 200 201
    endloop
  endfacet
  facet normal 0 1 0
    outer loop
      vertex 50.0234 200 202
      vertex 7.75543 200 201
      vertex 6.02338 200 202
    endloop
  endfacet
  facet normal 0 1 0
    outer loop
      vertex -182.245 200 201
      vertex -139.977 200 202
      vertex -138.245 200 201
    endloop
  endfacet
  facet normal 0 1 0
    outer loop
      vertex -139.977 200 202
      vertex -182.245 200 201
      vertex -183.977 200 202
    endloop
  endfacet
  facet normal 1 -0 0
    outer loop
      vertex -203 -200 103.287
      vertex -203 200 18.9935
      vertex -203 200 103.287
    endloop
  endfacet
  facet normal 1 0 0
    outer loop
      vertex -203 200 18.9935
      vertex -203 -200 103.287
      vertex -203 -200 18.9935
    endloop
  endfacet
  facet normal 1 -0 0
    outer loop
      vertex -203 -200 -6.40995
      vertex -203 200 -90.7031
      vertex -203 200 -6.40995
    endloop
  endfacet
  facet normal 1 0 0
    outer loop
      vertex -203 200 -90.7031
      vertex -203 -200 -6.40995
      vertex -203 -200 -90.7031
    endloop
  endfacet
  facet normal 1 -0 0
    outer loop
      vertex -203 -200 -116.106
      vertex -203 200 -200.4
      vertex -203 200 -116.106
    endloop
  endfacet
  facet normal 1 0 0
    outer loop
      vertex -203 200 -200.4
      vertex -203 -200 -116.106
      vertex -203 -200 -200.4
    endloop
  endfacet
  facet normal 1 -0 0
    outer loop
      vertex -203 -200 179
      vertex -203 200 128.69
      vertex -203 200 179
    endloop
  endfacet
  facet normal 1 0 0
    outer loop
      vertex -203 200 128.69
      vertex -203 -200 179
      vertex -203 -200 128.69
    endloop
  endfacet
  facet normal 1 -0 0
    outer loop
      vertex -203 -200 -225.803
      vertex -203 200 -310.096
      vertex -203 200 -225.803
    endloop
  endfacet
  facet normal 1 0 0
    outer loop
      vertex -203 200 -310.096
      vertex -203 -200 -225.803
      vertex -203 -200 -310.096
    endloop
  endfacet
  facet normal 1 -0 0
    outer loop
      vertex -203 -200 -335.5
      vertex -203 200 -418
      vertex -203 200 -335.5
    endloop
  endfacet
  facet normal 1 0 0
    outer loop
      vertex -203 200 -418
      vertex -203 -200 -335.5
      vertex -203 -200 -418
    endloop
  endfacet
  facet normal 1 -0 0
    outer loop
      vertex -203 -200 418
      vertex -203 200 201
      vertex -203 200 418
    endloop
  endfacet
  facet normal 1 0 0
    outer loop
      vertex -203 200 201
      vertex -203 -200 418
      vertex -203 -200 201
    endloop
  endfacet
  facet normal 0 0 -1
    outer loop
      vertex -203 -200 418
      vertex 203 200 418
      vertex 203 -200 418
    endloop
  endfacet
  facet normal -0 0 -1
    outer loop
      vertex 203 200 418
      vertex -203 -200 418
      vertex -203 200 418
    endloop
  endfacet
  facet normal -1 0 0
    outer loop
      vertex 203 -200 -215.411
      vertex 203 200 -131.118
      vertex 203 200 -215.411
    endloop
  endfacet
  facet normal -1 -0 0
    outer loop
      vertex 203 200 -131.118
      vertex 203 -200 -215.411
      vertex 203 -200 -131.118
    endloop
  endfacet
  facet normal -1 0 0
    outer loop
      vertex 203 -200 -325.107
      vertex 203 200 -240.814
      vertex 203 200 -325.107
    endloop
  endfacet
  facet normal -1 -0 0
    outer loop
      vertex 203 200 -240.814
      vertex 203 -200 -325.107
      vertex 203 -200 -240.814
    endloop
  endfacet
  facet normal -1 0 0
    outer loop
      vertex 203 -200 -418
      vertex 203 200 -350.511
      vertex 203 200 -418
    endloop
  endfacet
  facet normal -1 -0 0
    outer loop
      vertex 203 200 -350.511
      vertex 203 -200 -418
      vertex 203 -200 -350.511
    endloop
  endfacet
  facet normal -1 0 0
    outer loop
      vertex 203 -200 -105.714
      vertex 203 200 -21.4211
      vertex 203 200 -105.714
    endloop
  endfacet
  facet normal -1 -0 0
    outer loop
      vertex 203 200 -21.4211
      vertex 203 -200 -105.714
      vertex 203 -200 -21.4211
    endloop
  endfacet
  facet normal -1 0 0
    outer loop
      vertex 203 -200 3.98236
      vertex 203 200 88.2755
      vertex 203 200 3.98236
    endloop
  endfacet
  facet normal -1 -0 0
    outer loop
      vertex 203 200 88.2755
      vertex 203 -200 3.98236
      vertex 203 -200 88.2755
    endloop
  endfacet
  facet normal -1 0 0
    outer loop
      vertex 203 -200 113.679
      vertex 203 200 179
      vertex 203 200 113.679
    endloop
  endfacet
  facet normal -1 -0 0
    outer loop
      vertex 203 200 179
      vertex 203 -200 113.679
      vertex 203 -200 179
    endloop
  endfacet
  facet normal -1 0 0
    outer loop
      vertex 203 -200 201
      vertex 203 200 418
      vertex 203 200 201
    endloop
  endfacet
  facet normal -1 -0 0
    outer loop
      vertex 203 200 418
      vertex 203 -200 201
      vertex 203 -200 418
    endloop
  endfacet
  facet normal -0 0 1
    outer loop
      vertex -16.1051 200 -418
      vertex 129.895 -200 -418
      vertex 129.895 200 -418
    endloop
  endfacet
  facet normal 0 0 1
    outer loop
      vertex 129.895 -200 -418
      vertex -16.1051 200 -418
      vertex -16.1051 -200 -418
    endloop
  endfacet
  facet normal -0 0 1
    outer loop
      vertex -203 200 -418
      vertex -60.1051 -200 -418
      vertex -60.1051 200 -418
    endloop
  endfacet
  facet normal 0 0 1
    outer loop
      vertex -60.1051 -200 -418
      vertex -203 200 -418
      vertex -203 -200 -418
    endloop
  endfacet
  facet normal -0 0 1
    outer loop
      vertex 173.895 200 -418
      vertex 203 -200 -418
      vertex 203 200 -418
    endloop
  endfacet
  facet normal 0 0 1
    outer loop
      vertex 203 -200 -418
      vertex 173.895 200 -418
      vertex 173.895 -200 -418
    endloop
  endfacet
  facet normal 0.5 0 0.866025
    outer loop
      vertex -203 200 -310.096
      vertex -16.1051 -200 -418
      vertex -16.1051 200 -418
    endloop
  endfacet
  facet normal 0.5 0 0.866025
    outer loop
      vertex -16.1051 -200 -418
      vertex -203 200 -310.096
      vertex -203 -200 -310.096
    endloop
  endfacet
  facet normal -0.5 0 -0.866025
    outer loop
      vertex -203 -200 -335.5
      vertex -60.1051 200 -418
      vertex -60.1051 -200 -418
    endloop
  endfacet
  facet normal -0.5 0 -0.866025
    outer loop
      vertex -60.1051 200 -418
      vertex -203 -200 -335.5
      vertex -203 200 -335.5
    endloop
  endfacet
  facet normal 0.5 0 0.866025
    outer loop
      vertex -203 200 -200.4
      vertex 173.895 -200 -418
      vertex 173.895 200 -418
    endloop
  endfacet
  facet normal 0.5 0 0.866025
    outer loop
      vertex 173.895 -200 -418
      vertex -203 200 -200.4
      vertex -203 -200 -200.4
    endloop
  endfacet
  facet normal -0.5 0 -0.866025
    outer loop
      vertex -203 -200 -225.803
      vertex 129.895 200 -418
      vertex 129.895 -200 -418
    endloop
  endfacet
  facet normal -0.5 0 -0.866025
    outer loop
      vertex 129.895 200 -418
      vertex -203 -200 -225.803
      vertex -203 200 -225.803
    endloop
  endfacet
  facet normal 0.5 0 0.866025
    outer loop
      vertex -203 200 -90.7031
      vertex 203 -200 -325.107
      vertex 203 200 -325.107
    endloop
  endfacet
  facet normal 0.5 0 0.866025
    outer loop
      vertex 203 -200 -325.107
      vertex -203 200 -90.7031
      vertex -203 -200 -90.7031
    endloop
  endfacet
  facet normal -0.5 0 -0.866025
    outer loop
      vertex -203 -200 -116.106
      vertex 203 200 -350.511
      vertex 203 -200 -350.511
    endloop
  endfacet
  facet normal -0.5 0 -0.866025
    outer loop
      vertex 203 200 -350.511
      vertex -203 -200 -116.106
      vertex -203 200 -116.106
    endloop
  endfacet
  facet normal 0.5 0 0.866025
    outer loop
      vertex -203 200 18.9935
      vertex 203 -200 -215.411
      vertex 203 200 -215.411
    endloop
  endfacet
  facet normal 0.5 0 0.866025
    outer loop
      vertex 203 -200 -215.411
      vertex -203 200 18.9935
      vertex -203 -200 18.9935
    endloop
  endfacet
  facet normal -0.5 0 -0.866025
    outer loop
      vertex -203 -200 -6.40995
      vertex 203 200 -240.814
      vertex 203 -200 -240.814
    endloop
  endfacet
  facet normal -0.5 0 -0.866025
    outer loop
      vertex 203 200 -240.814
      vertex -203 -200 -6.40995
      vertex -203 200 -6.40995
    endloop
  endfacet
  facet normal 0.5 0 0.866025
    outer loop
      vertex -203 200 128.69
      vertex 203 -200 -105.714
      vertex 203 200 -105.714
    endloop
  endfacet
  facet normal 0.5 0 0.866025
    outer loop
      vertex 203 -200 -105.714
      vertex -203 200 128.69
      vertex -203 -200 128.69
    endloop
  endfacet
  facet normal -0.5 0 -0.866025
    outer loop
      vertex -203 -200 103.287
      vertex 203 200 -131.118
      vertex 203 -200 -131.118
    endloop
  endfacet
  facet normal -0.5 0 -0.866025
    outer loop
      vertex 203 200 -131.118
      vertex -203 -200 103.287
      vertex -203 200 103.287
    endloop
  endfacet
  facet normal 0.499999 0 0.866026
    outer loop
      vertex -139.977 200 202
      vertex -138.245 -200 201
      vertex -138.245 200 201
    endloop
  endfacet
  facet normal 0.499999 0 0.866026
    outer loop
      vertex -138.245 -200 201
      vertex -139.977 200 202
      vertex -139.977 -200 202
    endloop
  endfacet
  facet normal 0.5 0 0.866025
    outer loop
      vertex -100.139 200 179
      vertex 203 -200 3.98236
      vertex 203 200 3.98236
    endloop
  endfacet
  facet normal 0.5 0 0.866025
    outer loop
      vertex 203 -200 3.98236
      vertex -100.139 200 179
      vertex -100.139 -200 179
    endloop
  endfacet
  facet normal -0.499999 0 -0.866026
    outer loop
      vertex -183.977 -200 202
      vertex -182.245 200 201
      vertex -182.245 -200 201
    endloop
  endfacet
  facet normal -0.499999 0 -0.866026
    outer loop
      vertex -182.245 200 201
      vertex -183.977 -200 202
      vertex -183.977 200 202
    endloop
  endfacet
  facet normal -0.5 0 -0.866025
    outer loop
      vertex -144.139 -200 179
      vertex 203 200 -21.4211
      vertex 203 -200 -21.4211
    endloop
  endfacet
  facet normal -0.5 0 -0.866025
    outer loop
      vertex 203 200 -21.4211
      vertex -144.139 -200 179
      vertex -144.139 200 179
    endloop
  endfacet
  facet normal 0.5 0 0.866026
    outer loop
      vertex 50.0234 200 202
      vertex 51.7554 -200 201
      vertex 51.7554 200 201
    endloop
  endfacet
  facet normal 0.5 0 0.866026
    outer loop
      vertex 51.7554 -200 201
      vertex 50.0234 200 202
      vertex 50.0234 -200 202
    endloop
  endfacet
  facet normal 0.5 0 0.866025
    outer loop
      vertex 89.8605 200 179
      vertex 203 -200 113.679
      vertex 203 200 113.679
    endloop
  endfacet
  facet normal 0.5 0 0.866025
    outer loop
      vertex 203 -200 113.679
      vertex 89.8605 200 179
      vertex 89.8605 -200 179
    endloop
  endfacet
  facet normal -0.5 0 -0.866025
    outer loop
      vertex 6.02338 -200 202
      vertex 7.75543 200 201
      vertex 7.75543 -200 201
    endloop
  endfacet
  facet normal -0.5 0 -0.866025
    outer loop
      vertex 7.75543 200 201
      vertex 6.02338 -200 202
      vertex 6.02338 200 202
    endloop
  endfacet
  facet normal -0.5 0 -0.866025
    outer loop
      vertex 45.8605 -200 179
      vertex 203 200 88.2755
      vertex 203 -200 88.2755
    endloop
  endfacet
  facet normal -0.5 0 -0.866025
    outer loop
      vertex 203 200 88.2755
      vertex 45.8605 -200 179
      vertex 45.8605 200 179
    endloop
  endfacet
  facet normal -0 0 1
    outer loop
      vertex 6.02338 200 202
      vertex 50.0234 -200 202
      vertex 50.0234 200 202
    endloop
  endfacet
  facet normal 0 0 1
    outer loop
      vertex 50.0234 -200 202
      vertex 6.02338 200 202
      vertex 6.02338 -200 202
    endloop
  endfacet
  facet normal -0 0 1
    outer loop
      vertex -183.977 200 202
      vertex -139.977 -200 202
      vertex -139.977 200 202
    endloop
  endfacet
  facet normal 0 0 1
    outer loop
      vertex -139.977 -200 202
      vertex -183.977 200 202
      vertex -183.977 -200 202
    endloop
  endfacet
  facet normal -0 0 1
    outer loop
      vertex -203 200 201
      vertex -182.245 -200 201
      vertex -182.245 200 201
    endloop
  endfacet
  facet normal 0 0 1
    outer loop
      vertex -182.245 -200 201
      vertex -203 200 201
      vertex -203 -200 201
    endloop
  endfacet
  facet normal -0 0 1
    outer loop
      vertex -138.245 200 201
      vertex 7.75543 -200 201
      vertex 7.75543 200 201
    endloop
  endfacet
  facet normal 0 0 1
    outer loop
      vertex 7.75543 -200 201
      vertex -138.245 200 201
      vertex -138.245 -200 201
    endloop
  endfacet
  facet normal -0 0 1
    outer loop
      vertex 51.7554 200 201
      vertex 203 -200 201
      vertex 203 200 201
    endloop
  endfacet
  facet normal 0 0 1
    outer loop
      vertex 203 -200 201
      vertex 51.7554 200 201
      vertex 51.7554 -200 201
    endloop
  endfacet
  facet normal 0 0 -1
    outer loop
      vertex -203 -200 179
      vertex -144.139 200 179
      vertex -144.139 -200 179
    endloop
  endfacet
  facet normal -0 0 -1
    outer loop
      vertex -144.139 200 179
      vertex -203 -200 179
      vertex -203 200 179
    endloop
  endfacet
  facet normal 0 0 -1
    outer loop
      vertex -100.139 -200 179
      vertex 45.8605 200 179
      vertex 45.8605 -200 179
    endloop
  endfacet
  facet normal -0 0 -1
    outer loop
      vertex 45.8605 200 179
      vertex -100.139 -200 179
      vertex -100.139 200 179
    endloop
  endfacet
  facet normal 0 0 -1
    outer loop
      vertex 89.8605 -200 179
      vertex 203 200 179
      vertex 203 -200 179
    endloop
  endfacet
  facet normal -0 0 -1
    outer loop
      vertex 203 200 179
      vertex 89.8605 -200 179
      vertex 89.8605 200 179
    endloop
  endfacet
endsolid OpenSCAD_Model
