solid OpenSCAD_Model
  facet normal -1 0 0
    outer loop
      vertex -225 -200 348.083
      vertex -225 200 440
      vertex -225 200 348.083
    endloop
  endfacet
  facet normal -1 -0 0
    outer loop
      vertex -225 200 440
      vertex -225 -200 348.083
      vertex -225 -200 440
    endloop
  endfacet
  facet normal -1 0 0
    outer loop
      vertex -225 -200 -440
      vertex -225 200 -320.488
      vertex -225 200 -440
    endloop
  endfacet
  facet normal -1 -0 0
    outer loop
      vertex -225 200 -320.488
      vertex -225 -200 -440
      vertex -225 -200 -320.488
    endloop
  endfacet
  facet normal -1 0 0
    outer loop
      vertex -225 -200 -200.4
      vertex -225 200 -101.095
      vertex -225 200 -200.4
    endloop
  endfacet
  facet normal -1 -0 0
    outer loop
      vertex -225 200 -101.095
      vertex -225 -200 -200.4
      vertex -225 -200 -101.095
    endloop
  endfacet
  facet normal -1 0 0
    outer loop
      vertex -225 -200 -90.7031
      vertex -225 200 8.60116
      vertex -225 200 -90.7031
    endloop
  endfacet
  facet normal -1 -0 0
    outer loop
      vertex -225 200 8.60116
      vertex -225 -200 -90.7031
      vertex -225 -200 8.60116
    endloop
  endfacet
  facet normal -1 0 0
    outer loop
      vertex -225 -200 -310.096
      vertex -225 200 -210.792
      vertex -225 200 -310.096
    endloop
  endfacet
  facet normal -1 -0 0
    outer loop
      vertex -225 200 -210.792
      vertex -225 -200 -310.096
      vertex -225 -200 -210.792
    endloop
  endfacet
  facet normal -1 0 0
    outer loop
      vertex -225 -200 18.9935
      vertex -225 200 118.298
      vertex -225 200 18.9935
    endloop
  endfacet
  facet normal -1 -0 0
    outer loop
      vertex -225 200 118.298
      vertex -225 -200 18.9935
      vertex -225 -200 118.298
    endloop
  endfacet
  facet normal -1 0 0
    outer loop
      vertex -225 -200 238.387
      vertex -225 200 337.691
      vertex -225 200 238.387
    endloop
  endfacet
  facet normal -1 -0 0
    outer loop
      vertex -225 200 337.691
      vertex -225 -200 238.387
      vertex -225 -200 337.691
    endloop
  endfacet
  facet normal -1 0 0
    outer loop
      vertex -225 -200 128.69
      vertex -225 200 227.994
      vertex -225 200 128.69
    endloop
  endfacet
  facet normal -1 -0 0
    outer loop
      vertex -225 200 227.994
      vertex -225 -200 128.69
      vertex -225 -200 227.994
    endloop
  endfacet
  facet normal -0 0 1
    outer loop
      vertex -225 200 440
      vertex 225 -200 440
      vertex 225 200 440
    endloop
  endfacet
  facet normal 0 0 1
    outer loop
      vertex 225 -200 440
      vertex -225 200 440
      vertex -225 -200 440
    endloop
  endfacet
  facet normal 1 -0 0
    outer loop
      vertex 225 -200 440
      vertex 225 200 98.6678
      vertex 225 200 440
    endloop
  endfacet
  facet normal 1 0 0
    outer loop
      vertex 225 200 98.6678
      vertex 225 -200 440
      vertex 225 -200 98.6678
    endloop
  endfacet
  facet normal 1 -0 0
    outer loop
      vertex 225 -200 -350.511
      vertex 225 200 -440
      vertex 225 200 -350.511
    endloop
  endfacet
  facet normal 1 0 0
    outer loop
      vertex 225 200 -440
      vertex 225 -200 -350.511
      vertex 225 -200 -440
    endloop
  endfacet
  facet normal 1 -0 0
    outer loop
      vertex 225 -200 -131.118
      vertex 225 200 -230.422
      vertex 225 200 -131.118
    endloop
  endfacet
  facet normal 1 0 0
    outer loop
      vertex 225 200 -230.422
      vertex 225 -200 -131.118
      vertex 225 -200 -230.422
    endloop
  endfacet
  facet normal 1 -0 0
    outer loop
      vertex 225 -200 -240.814
      vertex 225 200 -340.118
      vertex 225 200 -240.814
    endloop
  endfacet
  facet normal 1 0 0
    outer loop
      vertex 225 200 -340.118
      vertex 225 -200 -240.814
      vertex 225 -200 -340.118
    endloop
  endfacet
  facet normal 1 -0 0
    outer loop
      vertex 225 -200 -21.4211
      vertex 225 200 -120.725
      vertex 225 200 -21.4211
    endloop
  endfacet
  facet normal 1 0 0
    outer loop
      vertex 225 200 -120.725
      vertex 225 -200 -21.4211
      vertex 225 -200 -120.725
    endloop
  endfacet
  facet normal 1 -0 0
    outer loop
      vertex 225 -200 88.2755
      vertex 225 200 -11.0287
      vertex 225 200 88.2755
    endloop
  endfacet
  facet normal 1 0 0
    outer loop
      vertex 225 200 -11.0287
      vertex 225 -200 88.2755
      vertex 225 -200 -11.0287
    endloop
  endfacet
  facet normal 0 1 -0
    outer loop
      vertex 220.5 200 -577.698
      vertex 18 200 -440
      vertex 229.5 200 -562.11
    endloop
  endfacet
  facet normal 0 1 0
    outer loop
      vertex 18 200 -440
      vertex 220.5 200 -577.698
      vertex -18 200 -440
    endloop
  endfacet
  facet normal 0 1 -0
    outer loop
      vertex 220.5 200 -468.001
      vertex 208 200 -440
      vertex 229.5 200 -452.413
    endloop
  endfacet
  facet normal 0 1 0
    outer loop
      vertex 208 200 -440
      vertex 220.5 200 -468.001
      vertex 172 200 -440
    endloop
  endfacet
  facet normal 0 1 -0
    outer loop
      vertex -207 200 -422
      vertex -225 200 -320.488
      vertex -207 200 -330.881
    endloop
  endfacet
  facet normal 0 1 0
    outer loop
      vertex 140.823 200 -422
      vertex 18 200 -440
      vertex -13.1769 200 -422
    endloop
  endfacet
  facet normal 0 1 0
    outer loop
      vertex -18 200 -440
      vertex -13.1769 200 -422
      vertex 18 200 -440
    endloop
  endfacet
  facet normal 0 1 0
    outer loop
      vertex -13.1769 200 -422
      vertex -18 200 -440
      vertex -49.1769 200 -422
    endloop
  endfacet
  facet normal 0 1 0
    outer loop
      vertex -225 200 -440
      vertex -49.1769 200 -422
      vertex -18 200 -440
    endloop
  endfacet
  facet normal 0 1 0
    outer loop
      vertex -207 200 -422
      vertex -225 200 -440
      vertex -225 200 -320.488
    endloop
  endfacet
  facet normal 0 1 0
    outer loop
      vertex -49.1769 200 -422
      vertex -225 200 -440
      vertex -207 200 -422
    endloop
  endfacet
  facet normal 0 1 0
    outer loop
      vertex -225 200 -310.096
      vertex -207 200 -221.184
      vertex -207 200 -310.096
    endloop
  endfacet
  facet normal 0 1 0
    outer loop
      vertex -207 200 -221.184
      vertex -225 200 -310.096
      vertex -225 200 -210.792
    endloop
  endfacet
  facet normal 0 1 0
    outer loop
      vertex -225 200 -320.488
      vertex -225 200 -310.096
      vertex -207 200 -310.096
    endloop
  endfacet
  facet normal 0 1 0
    outer loop
      vertex -225 200 -310.096
      vertex -225 200 -320.488
      vertex -229.5 200 -317.89
    endloop
  endfacet
  facet normal 0 1 0
    outer loop
      vertex -207 200 -310.096
      vertex -207 200 -330.881
      vertex -225 200 -320.488
    endloop
  endfacet
  facet normal 0 1 -0
    outer loop
      vertex -49.1769 200 -422
      vertex -207 200 -310.096
      vertex -13.1769 200 -422
    endloop
  endfacet
  facet normal 0 1 0
    outer loop
      vertex -207 200 -310.096
      vertex -49.1769 200 -422
      vertex -207 200 -330.881
    endloop
  endfacet
  facet normal 0 1 0
    outer loop
      vertex -225 200 -200.4
      vertex -207 200 -111.488
      vertex -207 200 -200.4
    endloop
  endfacet
  facet normal 0 1 0
    outer loop
      vertex -207 200 -111.488
      vertex -225 200 -200.4
      vertex -225 200 -101.095
    endloop
  endfacet
  facet normal 0 1 0
    outer loop
      vertex -225 200 -210.792
      vertex -225 200 -200.4
      vertex -207 200 -200.4
    endloop
  endfacet
  facet normal 0 1 0
    outer loop
      vertex -225 200 -200.4
      vertex -225 200 -210.792
      vertex -229.5 200 -208.194
    endloop
  endfacet
  facet normal 0 1 0
    outer loop
      vertex -207 200 -200.4
      vertex -207 200 -221.184
      vertex -225 200 -210.792
    endloop
  endfacet
  facet normal 0 1 -0
    outer loop
      vertex 140.823 200 -422
      vertex -207 200 -200.4
      vertex 176.823 200 -422
    endloop
  endfacet
  facet normal 0 1 0
    outer loop
      vertex -207 200 -200.4
      vertex 140.823 200 -422
      vertex -207 200 -221.184
    endloop
  endfacet
  facet normal 0 1 0
    outer loop
      vertex -225 200 -90.7031
      vertex -207 200 -1.79115
      vertex -207 200 -90.7031
    endloop
  endfacet
  facet normal 0 1 0
    outer loop
      vertex -207 200 -1.79115
      vertex -225 200 -90.7031
      vertex -225 200 8.60116
    endloop
  endfacet
  facet normal 0 1 0
    outer loop
      vertex -225 200 -101.095
      vertex -225 200 -90.7031
      vertex -207 200 -90.7031
    endloop
  endfacet
  facet normal 0 1 0
    outer loop
      vertex -225 200 -90.7031
      vertex -225 200 -101.095
      vertex -229.5 200 -98.4973
    endloop
  endfacet
  facet normal 0 1 0
    outer loop
      vertex -207 200 -90.7031
      vertex -207 200 -111.488
      vertex -225 200 -101.095
    endloop
  endfacet
  facet normal 0 1 0
    outer loop
      vertex 207 200 -329.726
      vertex -207 200 -111.488
      vertex -207 200 -90.7031
    endloop
  endfacet
  facet normal 0 1 0
    outer loop
      vertex 207 200 -350.511
      vertex 207 200 -329.726
      vertex 225 200 -340.118
    endloop
  endfacet
  facet normal 0 1 0
    outer loop
      vertex 225 200 -350.511
      vertex 225 200 -340.118
      vertex 229.5 200 -342.716
    endloop
  endfacet
  facet normal 0 1 0
    outer loop
      vertex 225 200 -340.118
      vertex 225 200 -350.511
      vertex 207 200 -350.511
    endloop
  endfacet
  facet normal 0 1 0
    outer loop
      vertex 207 200 -329.726
      vertex 207 200 -350.511
      vertex -207 200 -111.488
    endloop
  endfacet
  facet normal 0 1 0
    outer loop
      vertex 225 200 -350.511
      vertex 207 200 -422
      vertex 207 200 -350.511
    endloop
  endfacet
  facet normal 0 1 -0
    outer loop
      vertex 208 200 -440
      vertex 207 200 -422
      vertex 225 200 -440
    endloop
  endfacet
  facet normal 0 1 0
    outer loop
      vertex 207 200 -422
      vertex 208 200 -440
      vertex 176.823 200 -422
    endloop
  endfacet
  facet normal 0 1 0
    outer loop
      vertex 172 200 -440
      vertex 176.823 200 -422
      vertex 208 200 -440
    endloop
  endfacet
  facet normal 0 1 0
    outer loop
      vertex 176.823 200 -422
      vertex 172 200 -440
      vertex 140.823 200 -422
    endloop
  endfacet
  facet normal 0 1 0
    outer loop
      vertex 18 200 -440
      vertex 140.823 200 -422
      vertex 172 200 -440
    endloop
  endfacet
  facet normal 0 1 -0
    outer loop
      vertex 225 200 -440
      vertex 207 200 -422
      vertex 225 200 -350.511
    endloop
  endfacet
  facet normal 0 1 0
    outer loop
      vertex -225 200 18.9935
      vertex -207 200 107.905
      vertex -207 200 18.9935
    endloop
  endfacet
  facet normal 0 1 0
    outer loop
      vertex -207 200 107.905
      vertex -225 200 18.9935
      vertex -225 200 118.298
    endloop
  endfacet
  facet normal 0 1 0
    outer loop
      vertex -225 200 8.60116
      vertex -225 200 18.9935
      vertex -207 200 18.9935
    endloop
  endfacet
  facet normal 0 1 0
    outer loop
      vertex -225 200 18.9935
      vertex -225 200 8.60116
      vertex -229.5 200 11.1992
    endloop
  endfacet
  facet normal 0 1 0
    outer loop
      vertex -207 200 18.9935
      vertex -207 200 -1.79115
      vertex -225 200 8.60116
    endloop
  endfacet
  facet normal 0 1 0
    outer loop
      vertex 207 200 -220.03
      vertex -207 200 -1.79115
      vertex -207 200 18.9935
    endloop
  endfacet
  facet normal 0 1 0
    outer loop
      vertex 207 200 -240.814
      vertex 207 200 -220.03
      vertex 225 200 -230.422
    endloop
  endfacet
  facet normal 0 1 0
    outer loop
      vertex 225 200 -240.814
      vertex 225 200 -230.422
      vertex 229.5 200 -233.02
    endloop
  endfacet
  facet normal 0 1 0
    outer loop
      vertex 225 200 -230.422
      vertex 225 200 -240.814
      vertex 207 200 -240.814
    endloop
  endfacet
  facet normal 0 1 0
    outer loop
      vertex 207 200 -220.03
      vertex 207 200 -240.814
      vertex -207 200 -1.79115
    endloop
  endfacet
  facet normal 0 1 0
    outer loop
      vertex 225 200 -240.814
      vertex 207 200 -329.726
      vertex 207 200 -240.814
    endloop
  endfacet
  facet normal -0 1 0
    outer loop
      vertex 207 200 -329.726
      vertex 225 200 -240.814
      vertex 225 200 -340.118
    endloop
  endfacet
  facet normal 0 1 -0
    outer loop
      vertex 207 200 -21.4211
      vertex -107.604 200 181
      vertex 207 200 -0.636444
    endloop
  endfacet
  facet normal 0 1 0
    outer loop
      vertex 207 200 -21.4211
      vertex 207 200 -0.636444
      vertex 225 200 -11.0287
    endloop
  endfacet
  facet normal 0 1 0
    outer loop
      vertex 225 200 -21.4211
      vertex 225 200 -11.0287
      vertex 229.5 200 -13.6268
    endloop
  endfacet
  facet normal 0 1 0
    outer loop
      vertex 225 200 -11.0287
      vertex 225 200 -21.4211
      vertex 207 200 -21.4211
    endloop
  endfacet
  facet normal 0 1 0
    outer loop
      vertex -107.604 200 181
      vertex 207 200 -21.4211
      vertex -143.604 200 181
    endloop
  endfacet
  facet normal 0 1 0
    outer loop
      vertex 225 200 -21.4211
      vertex 207 200 -110.333
      vertex 207 200 -21.4211
    endloop
  endfacet
  facet normal -0 1 0
    outer loop
      vertex 207 200 -110.333
      vertex 225 200 -21.4211
      vertex 225 200 -120.725
    endloop
  endfacet
  facet normal 0 1 -0
    outer loop
      vertex 207 200 88.2755
      vertex 82.3964 200 181
      vertex 207 200 109.06
    endloop
  endfacet
  facet normal 0 1 0
    outer loop
      vertex 207 200 88.2755
      vertex 207 200 109.06
      vertex 225 200 98.6678
    endloop
  endfacet
  facet normal 0 1 0
    outer loop
      vertex 225 200 88.2755
      vertex 225 200 98.6678
      vertex 229.5 200 96.0697
    endloop
  endfacet
  facet normal 0 1 0
    outer loop
      vertex 225 200 98.6678
      vertex 225 200 88.2755
      vertex 207 200 88.2755
    endloop
  endfacet
  facet normal 0 1 0
    outer loop
      vertex 82.3964 200 181
      vertex 207 200 88.2755
      vertex 46.3964 200 181
    endloop
  endfacet
  facet normal 0 1 0
    outer loop
      vertex 225 200 88.2755
      vertex 207 200 -0.636444
      vertex 207 200 88.2755
    endloop
  endfacet
  facet normal -0 1 0
    outer loop
      vertex 207 200 -0.636444
      vertex 225 200 88.2755
      vertex 225 200 -11.0287
    endloop
  endfacet
  facet normal 0 1 0
    outer loop
      vertex 225 200 440
      vertex 207 200 422
      vertex -225 200 440
    endloop
  endfacet
  facet normal 0 1 0
    outer loop
      vertex 225 200 440
      vertex 207 200 199
      vertex 207 200 422
    endloop
  endfacet
  facet normal 0 1 -0
    outer loop
      vertex 82.3964 200 181
      vertex 51.2195 200 199
      vertex 207 200 199
    endloop
  endfacet
  facet normal 0 1 0
    outer loop
      vertex 46.3964 200 181
      vertex 51.2195 200 199
      vertex 82.3964 200 181
    endloop
  endfacet
  facet normal 0 1 0
    outer loop
      vertex -107.604 200 181
      vertex 15.2195 200 199
      vertex 46.3964 200 181
    endloop
  endfacet
  facet normal 0 1 0
    outer loop
      vertex 15.2195 200 199
      vertex -107.604 200 181
      vertex -138.78 200 199
    endloop
  endfacet
  facet normal 0 1 0
    outer loop
      vertex 82.3964 200 181
      vertex 207 200 199
      vertex 207 200 181
    endloop
  endfacet
  facet normal 0 1 -0
    outer loop
      vertex 225 200 98.6678
      vertex 207 200 199
      vertex 225 200 440
    endloop
  endfacet
  facet normal 0 1 0
    outer loop
      vertex 207 200 199
      vertex 225 200 98.6678
      vertex 207 200 181
    endloop
  endfacet
  facet normal 0 1 0
    outer loop
      vertex 207 200 181
      vertex 225 200 98.6678
      vertex 207 200 109.06
    endloop
  endfacet
  facet normal 0 1 -0
    outer loop
      vertex -207 200 422
      vertex -225 200 440
      vertex 207 200 422
    endloop
  endfacet
  facet normal 0 1 0
    outer loop
      vertex -207 200 422
      vertex -225 200 348.083
      vertex -225 200 440
    endloop
  endfacet
  facet normal 0 1 0
    outer loop
      vertex -225 200 348.083
      vertex -225 200 337.691
      vertex -229.5 200 340.289
    endloop
  endfacet
  facet normal 0 1 0
    outer loop
      vertex -207 200 422
      vertex -225 200 337.691
      vertex -225 200 348.083
    endloop
  endfacet
  facet normal 0 1 -0
    outer loop
      vertex -207 200 199
      vertex -225 200 337.691
      vertex -207 200 422
    endloop
  endfacet
  facet normal 0 1 0
    outer loop
      vertex -225 200 238.387
      vertex -225 200 227.994
      vertex -229.5 200 230.592
    endloop
  endfacet
  facet normal 0 1 0
    outer loop
      vertex -225 200 337.691
      vertex -207 200 199
      vertex -225 200 238.387
    endloop
  endfacet
  facet normal 0 1 0
    outer loop
      vertex -225 200 238.387
      vertex -207 200 199
      vertex -225 200 227.994
    endloop
  endfacet
  facet normal 0 1 0
    outer loop
      vertex 51.2195 200 199
      vertex 46.3964 200 181
      vertex 15.2195 200 199
    endloop
  endfacet
  facet normal 0 1 0
    outer loop
      vertex -143.604 200 181
      vertex -138.78 200 199
      vertex -107.604 200 181
    endloop
  endfacet
  facet normal 0 1 0
    outer loop
      vertex -138.78 200 199
      vertex -143.604 200 181
      vertex -174.78 200 199
    endloop
  endfacet
  facet normal 0 1 0
    outer loop
      vertex -207 200 181
      vertex -174.78 200 199
      vertex -143.604 200 181
    endloop
  endfacet
  facet normal 0 1 0
    outer loop
      vertex -174.78 200 199
      vertex -207 200 181
      vertex -207 200 199
    endloop
  endfacet
  facet normal 0 1 -0
    outer loop
      vertex -207 200 181
      vertex -225 200 227.994
      vertex -207 200 199
    endloop
  endfacet
  facet normal 0 1 0
    outer loop
      vertex -225 200 128.69
      vertex -207 200 181
      vertex -207 200 128.69
    endloop
  endfacet
  facet normal 0 1 0
    outer loop
      vertex -207 200 181
      vertex -225 200 128.69
      vertex -225 200 227.994
    endloop
  endfacet
  facet normal 0 1 0
    outer loop
      vertex -225 200 118.298
      vertex -225 200 128.69
      vertex -207 200 128.69
    endloop
  endfacet
  facet normal 0 1 0
    outer loop
      vertex -225 200 128.69
      vertex -225 200 118.298
      vertex -229.5 200 120.896
    endloop
  endfacet
  facet normal 0 1 0
    outer loop
      vertex -207 200 128.69
      vertex -207 200 107.905
      vertex -225 200 118.298
    endloop
  endfacet
  facet normal 0 1 0
    outer loop
      vertex 207 200 -110.333
      vertex -207 200 107.905
      vertex -207 200 128.69
    endloop
  endfacet
  facet normal 0 1 0
    outer loop
      vertex 207 200 -131.118
      vertex 207 200 -110.333
      vertex 225 200 -120.725
    endloop
  endfacet
  facet normal 0 1 0
    outer loop
      vertex 225 200 -131.118
      vertex 225 200 -120.725
      vertex 229.5 200 -123.323
    endloop
  endfacet
  facet normal 0 1 0
    outer loop
      vertex 225 200 -120.725
      vertex 225 200 -131.118
      vertex 207 200 -131.118
    endloop
  endfacet
  facet normal 0 1 0
    outer loop
      vertex 207 200 -110.333
      vertex 207 200 -131.118
      vertex -207 200 107.905
    endloop
  endfacet
  facet normal 0 1 0
    outer loop
      vertex 225 200 -131.118
      vertex 207 200 -220.03
      vertex 207 200 -131.118
    endloop
  endfacet
  facet normal -0 1 0
    outer loop
      vertex 207 200 -220.03
      vertex 225 200 -131.118
      vertex 225 200 -230.422
    endloop
  endfacet
  facet normal 0 1 0
    outer loop
      vertex 15.2195 200 199
      vertex 46.0234 200 202
      vertex 51.2195 200 199
    endloop
  endfacet
  facet normal 0 1 0
    outer loop
      vertex 46.0234 200 202
      vertex 15.2195 200 199
      vertex 10.0234 200 202
    endloop
  endfacet
  facet normal 0 1 0
    outer loop
      vertex -174.78 200 199
      vertex -143.977 200 202
      vertex -138.78 200 199
    endloop
  endfacet
  facet normal 0 1 0
    outer loop
      vertex -143.977 200 202
      vertex -174.78 200 199
      vertex -179.977 200 202
    endloop
  endfacet
  facet normal 0 0 -1
    outer loop
      vertex -225 -200 -440
      vertex -18 200 -440
      vertex -18 -200 -440
    endloop
  endfacet
  facet normal -0 0 -1
    outer loop
      vertex -18 200 -440
      vertex -225 -200 -440
      vertex -225 200 -440
    endloop
  endfacet
  facet normal 0 0 -1
    outer loop
      vertex 208 -200 -440
      vertex 225 200 -440
      vertex 225 -200 -440
    endloop
  endfacet
  facet normal -0 0 -1
    outer loop
      vertex 225 200 -440
      vertex 208 -200 -440
      vertex 208 200 -440
    endloop
  endfacet
  facet normal 0 0 -1
    outer loop
      vertex 18 -200 -440
      vertex 172 200 -440
      vertex 172 -200 -440
    endloop
  endfacet
  facet normal -0 0 -1
    outer loop
      vertex 172 200 -440
      vertex 18 -200 -440
      vertex 18 200 -440
    endloop
  endfacet
  facet normal 0 -1 0
    outer loop
      vertex 220.5 -200 -468.001
      vertex 208 -200 -440
      vertex 172 -200 -440
    endloop
  endfacet
  facet normal 0 -1 0
    outer loop
      vertex 208 -200 -440
      vertex 220.5 -200 -468.001
      vertex 229.5 -200 -452.413
    endloop
  endfacet
  facet normal 0 -1 0
    outer loop
      vertex 220.5 -200 -577.698
      vertex 18 -200 -440
      vertex -18 -200 -440
    endloop
  endfacet
  facet normal 0 -1 0
    outer loop
      vertex 18 -200 -440
      vertex 220.5 -200 -577.698
      vertex 229.5 -200 -562.11
    endloop
  endfacet
  facet normal 0 -1 0
    outer loop
      vertex -225 -200 -320.488
      vertex -207 -200 -422
      vertex -207 -200 -330.881
    endloop
  endfacet
  facet normal 0 -1 0
    outer loop
      vertex -225 -200 -440
      vertex -49.1769 -200 -422
      vertex -207 -200 -422
    endloop
  endfacet
  facet normal 0 -1 0
    outer loop
      vertex -49.1769 -200 -422
      vertex -18 -200 -440
      vertex -13.1769 -200 -422
    endloop
  endfacet
  facet normal 0 -1 0
    outer loop
      vertex 18 -200 -440
      vertex -13.1769 -200 -422
      vertex -18 -200 -440
    endloop
  endfacet
  facet normal 0 -1 0
    outer loop
      vertex -13.1769 -200 -422
      vertex 18 -200 -440
      vertex 140.823 -200 -422
    endloop
  endfacet
  facet normal 0 -1 -0
    outer loop
      vertex -49.1769 -200 -422
      vertex -225 -200 -440
      vertex -18 -200 -440
    endloop
  endfacet
  facet normal 0 -1 0
    outer loop
      vertex -225 -200 -440
      vertex -207 -200 -422
      vertex -225 -200 -320.488
    endloop
  endfacet
  facet normal 0 -1 0
    outer loop
      vertex -225 -200 -310.096
      vertex -207 -200 -221.184
      vertex -225 -200 -210.792
    endloop
  endfacet
  facet normal 0 -1 0
    outer loop
      vertex -225 -200 -310.096
      vertex -207 -200 -310.096
      vertex -207 -200 -221.184
    endloop
  endfacet
  facet normal 0 -1 0
    outer loop
      vertex -225 -200 -320.488
      vertex -225 -200 -310.096
      vertex -229.5 -200 -317.89
    endloop
  endfacet
  facet normal 0 -1 0
    outer loop
      vertex -225 -200 -310.096
      vertex -225 -200 -320.488
      vertex -207 -200 -310.096
    endloop
  endfacet
  facet normal 0 -1 0
    outer loop
      vertex -207 -200 -330.881
      vertex -207 -200 -310.096
      vertex -225 -200 -320.488
    endloop
  endfacet
  facet normal 0 -1 0
    outer loop
      vertex -49.1769 -200 -422
      vertex -207 -200 -310.096
      vertex -207 -200 -330.881
    endloop
  endfacet
  facet normal 0 -1 0
    outer loop
      vertex -207 -200 -310.096
      vertex -49.1769 -200 -422
      vertex -13.1769 -200 -422
    endloop
  endfacet
  facet normal 0 -1 0
    outer loop
      vertex -225 -200 -200.4
      vertex -207 -200 -111.488
      vertex -225 -200 -101.095
    endloop
  endfacet
  facet normal 0 -1 0
    outer loop
      vertex -225 -200 -200.4
      vertex -207 -200 -200.4
      vertex -207 -200 -111.488
    endloop
  endfacet
  facet normal 0 -1 0
    outer loop
      vertex -225 -200 -210.792
      vertex -225 -200 -200.4
      vertex -229.5 -200 -208.194
    endloop
  endfacet
  facet normal 0 -1 0
    outer loop
      vertex -225 -200 -200.4
      vertex -225 -200 -210.792
      vertex -207 -200 -200.4
    endloop
  endfacet
  facet normal 0 -1 0
    outer loop
      vertex -207 -200 -221.184
      vertex -207 -200 -200.4
      vertex -225 -200 -210.792
    endloop
  endfacet
  facet normal 0 -1 0
    outer loop
      vertex 140.823 -200 -422
      vertex -207 -200 -200.4
      vertex -207 -200 -221.184
    endloop
  endfacet
  facet normal 0 -1 0
    outer loop
      vertex -207 -200 -200.4
      vertex 140.823 -200 -422
      vertex 176.823 -200 -422
    endloop
  endfacet
  facet normal 0 -1 0
    outer loop
      vertex -225 -200 -90.7031
      vertex -207 -200 -1.79115
      vertex -225 -200 8.60116
    endloop
  endfacet
  facet normal 0 -1 0
    outer loop
      vertex -225 -200 -90.7031
      vertex -207 -200 -90.7031
      vertex -207 -200 -1.79115
    endloop
  endfacet
  facet normal 0 -1 0
    outer loop
      vertex -225 -200 -101.095
      vertex -225 -200 -90.7031
      vertex -229.5 -200 -98.4973
    endloop
  endfacet
  facet normal 0 -1 0
    outer loop
      vertex -225 -200 -90.7031
      vertex -225 -200 -101.095
      vertex -207 -200 -90.7031
    endloop
  endfacet
  facet normal 0 -1 0
    outer loop
      vertex -207 -200 -111.488
      vertex -207 -200 -90.7031
      vertex -225 -200 -101.095
    endloop
  endfacet
  facet normal 0 -1 0
    outer loop
      vertex -207 -200 -111.488
      vertex 207 -200 -329.726
      vertex -207 -200 -90.7031
    endloop
  endfacet
  facet normal 0 -1 0
    outer loop
      vertex 207 -200 -350.511
      vertex 207 -200 -329.726
      vertex -207 -200 -111.488
    endloop
  endfacet
  facet normal 0 -1 0
    outer loop
      vertex 207 -200 -329.726
      vertex 207 -200 -350.511
      vertex 225 -200 -340.118
    endloop
  endfacet
  facet normal 0 -1 0
    outer loop
      vertex 225 -200 -350.511
      vertex 225 -200 -340.118
      vertex 207 -200 -350.511
    endloop
  endfacet
  facet normal 0 -1 0
    outer loop
      vertex 225 -200 -340.118
      vertex 225 -200 -350.511
      vertex 229.5 -200 -342.716
    endloop
  endfacet
  facet normal 0 -1 0
    outer loop
      vertex 207 -200 -422
      vertex 225 -200 -350.511
      vertex 207 -200 -350.511
    endloop
  endfacet
  facet normal 0 -1 0
    outer loop
      vertex 172 -200 -440
      vertex 140.823 -200 -422
      vertex 18 -200 -440
    endloop
  endfacet
  facet normal 0 -1 0
    outer loop
      vertex 140.823 -200 -422
      vertex 172 -200 -440
      vertex 176.823 -200 -422
    endloop
  endfacet
  facet normal 0 -1 0
    outer loop
      vertex 208 -200 -440
      vertex 176.823 -200 -422
      vertex 172 -200 -440
    endloop
  endfacet
  facet normal 0 -1 0
    outer loop
      vertex 176.823 -200 -422
      vertex 208 -200 -440
      vertex 207 -200 -422
    endloop
  endfacet
  facet normal 0 -1 0
    outer loop
      vertex 225 -200 -440
      vertex 207 -200 -422
      vertex 208 -200 -440
    endloop
  endfacet
  facet normal 0 -1 0
    outer loop
      vertex 207 -200 -422
      vertex 225 -200 -440
      vertex 225 -200 -350.511
    endloop
  endfacet
  facet normal 0 -1 0
    outer loop
      vertex -225 -200 18.9935
      vertex -207 -200 107.905
      vertex -225 -200 118.298
    endloop
  endfacet
  facet normal 0 -1 0
    outer loop
      vertex -225 -200 18.9935
      vertex -207 -200 18.9935
      vertex -207 -200 107.905
    endloop
  endfacet
  facet normal 0 -1 0
    outer loop
      vertex -225 -200 8.60116
      vertex -225 -200 18.9935
      vertex -229.5 -200 11.1992
    endloop
  endfacet
  facet normal 0 -1 0
    outer loop
      vertex -225 -200 18.9935
      vertex -225 -200 8.60116
      vertex -207 -200 18.9935
    endloop
  endfacet
  facet normal 0 -1 0
    outer loop
      vertex -207 -200 -1.79115
      vertex -207 -200 18.9935
      vertex -225 -200 8.60116
    endloop
  endfacet
  facet normal 0 -1 0
    outer loop
      vertex -207 -200 -1.79115
      vertex 207 -200 -220.03
      vertex -207 -200 18.9935
    endloop
  endfacet
  facet normal 0 -1 0
    outer loop
      vertex 207 -200 -240.814
      vertex 207 -200 -220.03
      vertex -207 -200 -1.79115
    endloop
  endfacet
  facet normal 0 -1 0
    outer loop
      vertex 207 -200 -220.03
      vertex 207 -200 -240.814
      vertex 225 -200 -230.422
    endloop
  endfacet
  facet normal 0 -1 0
    outer loop
      vertex 225 -200 -240.814
      vertex 225 -200 -230.422
      vertex 207 -200 -240.814
    endloop
  endfacet
  facet normal 0 -1 0
    outer loop
      vertex 225 -200 -230.422
      vertex 225 -200 -240.814
      vertex 229.5 -200 -233.02
    endloop
  endfacet
  facet normal 0 -1 0
    outer loop
      vertex 207 -200 -329.726
      vertex 225 -200 -240.814
      vertex 207 -200 -240.814
    endloop
  endfacet
  facet normal 0 -1 -0
    outer loop
      vertex 225 -200 -240.814
      vertex 207 -200 -329.726
      vertex 225 -200 -340.118
    endloop
  endfacet
  facet normal 0 -1 0
    outer loop
      vertex 207 -200 88.2755
      vertex 82.3964 -200 181
      vertex 46.3964 -200 181
    endloop
  endfacet
  facet normal 0 -1 0
    outer loop
      vertex 82.3964 -200 181
      vertex 207 -200 88.2755
      vertex 207 -200 109.06
    endloop
  endfacet
  facet normal 0 -1 0
    outer loop
      vertex 207 -200 109.06
      vertex 207 -200 88.2755
      vertex 225 -200 98.6678
    endloop
  endfacet
  facet normal 0 -1 0
    outer loop
      vertex 225 -200 88.2755
      vertex 225 -200 98.6678
      vertex 207 -200 88.2755
    endloop
  endfacet
  facet normal 0 -1 0
    outer loop
      vertex 225 -200 98.6678
      vertex 225 -200 88.2755
      vertex 229.5 -200 96.0697
    endloop
  endfacet
  facet normal 0 -1 0
    outer loop
      vertex 207 -200 -0.636444
      vertex 225 -200 88.2755
      vertex 207 -200 88.2755
    endloop
  endfacet
  facet normal 0 -1 -0
    outer loop
      vertex 225 -200 88.2755
      vertex 207 -200 -0.636444
      vertex 225 -200 -11.0287
    endloop
  endfacet
  facet normal 0 -1 0
    outer loop
      vertex 207 -200 -21.4211
      vertex -107.604 -200 181
      vertex -143.604 -200 181
    endloop
  endfacet
  facet normal 0 -1 0
    outer loop
      vertex -107.604 -200 181
      vertex 207 -200 -21.4211
      vertex 207 -200 -0.636444
    endloop
  endfacet
  facet normal 0 -1 0
    outer loop
      vertex 207 -200 -0.636444
      vertex 207 -200 -21.4211
      vertex 225 -200 -11.0287
    endloop
  endfacet
  facet normal 0 -1 0
    outer loop
      vertex 225 -200 -21.4211
      vertex 225 -200 -11.0287
      vertex 207 -200 -21.4211
    endloop
  endfacet
  facet normal 0 -1 0
    outer loop
      vertex 225 -200 -11.0287
      vertex 225 -200 -21.4211
      vertex 229.5 -200 -13.6268
    endloop
  endfacet
  facet normal 0 -1 0
    outer loop
      vertex 207 -200 -110.333
      vertex 225 -200 -21.4211
      vertex 207 -200 -21.4211
    endloop
  endfacet
  facet normal 0 -1 -0
    outer loop
      vertex 225 -200 -21.4211
      vertex 207 -200 -110.333
      vertex 225 -200 -120.725
    endloop
  endfacet
  facet normal 0 -1 0
    outer loop
      vertex -225 -200 440
      vertex -207 -200 422
      vertex 225 -200 440
    endloop
  endfacet
  facet normal 0 -1 0
    outer loop
      vertex -225 -200 348.083
      vertex -207 -200 422
      vertex -225 -200 440
    endloop
  endfacet
  facet normal 0 -1 0
    outer loop
      vertex -225 -200 337.691
      vertex -225 -200 348.083
      vertex -229.5 -200 340.289
    endloop
  endfacet
  facet normal 0 -1 0
    outer loop
      vertex -225 -200 337.691
      vertex -207 -200 422
      vertex -225 -200 348.083
    endloop
  endfacet
  facet normal 0 -1 0
    outer loop
      vertex -207 -200 199
      vertex -225 -200 337.691
      vertex -225 -200 238.387
    endloop
  endfacet
  facet normal 0 -1 0
    outer loop
      vertex -225 -200 227.994
      vertex -225 -200 238.387
      vertex -229.5 -200 230.592
    endloop
  endfacet
  facet normal 0 -1 0
    outer loop
      vertex -207 -200 199
      vertex -225 -200 238.387
      vertex -225 -200 227.994
    endloop
  endfacet
  facet normal 0 -1 0
    outer loop
      vertex -225 -200 337.691
      vertex -207 -200 199
      vertex -207 -200 422
    endloop
  endfacet
  facet normal 0 -1 0
    outer loop
      vertex -207 -200 181
      vertex -174.78 -200 199
      vertex -207 -200 199
    endloop
  endfacet
  facet normal 0 -1 0
    outer loop
      vertex -174.78 -200 199
      vertex -143.604 -200 181
      vertex -138.78 -200 199
    endloop
  endfacet
  facet normal 0 -1 0
    outer loop
      vertex -138.78 -200 199
      vertex -107.604 -200 181
      vertex 15.2195 -200 199
    endloop
  endfacet
  facet normal 0 -1 0
    outer loop
      vertex 46.3964 -200 181
      vertex 15.2195 -200 199
      vertex -107.604 -200 181
    endloop
  endfacet
  facet normal 0 -1 -0
    outer loop
      vertex -174.78 -200 199
      vertex -207 -200 181
      vertex -143.604 -200 181
    endloop
  endfacet
  facet normal 0 -1 0
    outer loop
      vertex -225 -200 227.994
      vertex -207 -200 181
      vertex -207 -200 199
    endloop
  endfacet
  facet normal 0 -1 0
    outer loop
      vertex -225 -200 128.69
      vertex -207 -200 181
      vertex -225 -200 227.994
    endloop
  endfacet
  facet normal 0 -1 0
    outer loop
      vertex -225 -200 128.69
      vertex -207 -200 128.69
      vertex -207 -200 181
    endloop
  endfacet
  facet normal 0 -1 0
    outer loop
      vertex -225 -200 118.298
      vertex -225 -200 128.69
      vertex -229.5 -200 120.896
    endloop
  endfacet
  facet normal 0 -1 0
    outer loop
      vertex -225 -200 128.69
      vertex -225 -200 118.298
      vertex -207 -200 128.69
    endloop
  endfacet
  facet normal 0 -1 0
    outer loop
      vertex -207 -200 107.905
      vertex -207 -200 128.69
      vertex -225 -200 118.298
    endloop
  endfacet
  facet normal 0 -1 0
    outer loop
      vertex -207 -200 107.905
      vertex 207 -200 -110.333
      vertex -207 -200 128.69
    endloop
  endfacet
  facet normal 0 -1 0
    outer loop
      vertex 207 -200 -131.118
      vertex 207 -200 -110.333
      vertex -207 -200 107.905
    endloop
  endfacet
  facet normal 0 -1 0
    outer loop
      vertex 207 -200 -110.333
      vertex 207 -200 -131.118
      vertex 225 -200 -120.725
    endloop
  endfacet
  facet normal 0 -1 0
    outer loop
      vertex 225 -200 -131.118
      vertex 225 -200 -120.725
      vertex 207 -200 -131.118
    endloop
  endfacet
  facet normal 0 -1 0
    outer loop
      vertex 225 -200 -120.725
      vertex 225 -200 -131.118
      vertex 229.5 -200 -123.323
    endloop
  endfacet
  facet normal 0 -1 0
    outer loop
      vertex 207 -200 -220.03
      vertex 225 -200 -131.118
      vertex 207 -200 -131.118
    endloop
  endfacet
  facet normal 0 -1 -0
    outer loop
      vertex 225 -200 -131.118
      vertex 207 -200 -220.03
      vertex 225 -200 -230.422
    endloop
  endfacet
  facet normal 0 -1 0
    outer loop
      vertex 207 -200 422
      vertex 225 -200 440
      vertex -207 -200 422
    endloop
  endfacet
  facet normal 0 -1 0
    outer loop
      vertex 207 -200 199
      vertex 225 -200 440
      vertex 207 -200 422
    endloop
  endfacet
  facet normal 0 -1 -0
    outer loop
      vertex -138.78 -200 199
      vertex -143.604 -200 181
      vertex -107.604 -200 181
    endloop
  endfacet
  facet normal 0 -1 0
    outer loop
      vertex 15.2195 -200 199
      vertex 46.3964 -200 181
      vertex 51.2195 -200 199
    endloop
  endfacet
  facet normal 0 -1 0
    outer loop
      vertex 82.3964 -200 181
      vertex 51.2195 -200 199
      vertex 46.3964 -200 181
    endloop
  endfacet
  facet normal 0 -1 0
    outer loop
      vertex 51.2195 -200 199
      vertex 82.3964 -200 181
      vertex 207 -200 199
    endloop
  endfacet
  facet normal 0 -1 0
    outer loop
      vertex 207 -200 181
      vertex 207 -200 199
      vertex 82.3964 -200 181
    endloop
  endfacet
  facet normal 0 -1 0
    outer loop
      vertex 225 -200 98.6678
      vertex 207 -200 199
      vertex 207 -200 181
    endloop
  endfacet
  facet normal 0 -1 0
    outer loop
      vertex 225 -200 98.6678
      vertex 207 -200 181
      vertex 207 -200 109.06
    endloop
  endfacet
  facet normal 0 -1 0
    outer loop
      vertex 207 -200 199
      vertex 225 -200 98.6678
      vertex 225 -200 440
    endloop
  endfacet
  facet normal 0 -1 0
    outer loop
      vertex -174.78 -200 199
      vertex -143.977 -200 202
      vertex -179.977 -200 202
    endloop
  endfacet
  facet normal 0 -1 -0
    outer loop
      vertex -143.977 -200 202
      vertex -174.78 -200 199
      vertex -138.78 -200 199
    endloop
  endfacet
  facet normal 0 -1 0
    outer loop
      vertex 15.2195 -200 199
      vertex 46.0234 -200 202
      vertex 10.0234 -200 202
    endloop
  endfacet
  facet normal 0 -1 -0
    outer loop
      vertex 46.0234 -200 202
      vertex 15.2195 -200 199
      vertex 51.2195 -200 199
    endloop
  endfacet
  facet normal 1 -0 0
    outer loop
      vertex -207 -200 422
      vertex -207 200 199
      vertex -207 200 422
    endloop
  endfacet
  facet normal 1 0 0
    outer loop
      vertex -207 200 199
      vertex -207 -200 422
      vertex -207 -200 199
    endloop
  endfacet
  facet normal 1 -0 0
    outer loop
      vertex -207 -200 -330.881
      vertex -207 200 -422
      vertex -207 200 -330.881
    endloop
  endfacet
  facet normal 1 0 0
    outer loop
      vertex -207 200 -422
      vertex -207 -200 -330.881
      vertex -207 -200 -422
    endloop
  endfacet
  facet normal 1 -0 0
    outer loop
      vertex -207 -200 -111.488
      vertex -207 200 -200.4
      vertex -207 200 -111.488
    endloop
  endfacet
  facet normal 1 0 0
    outer loop
      vertex -207 200 -200.4
      vertex -207 -200 -111.488
      vertex -207 -200 -200.4
    endloop
  endfacet
  facet normal 1 -0 0
    outer loop
      vertex -207 -200 -1.79115
      vertex -207 200 -90.7031
      vertex -207 200 -1.79115
    endloop
  endfacet
  facet normal 1 0 0
    outer loop
      vertex -207 200 -90.7031
      vertex -207 -200 -1.79115
      vertex -207 -200 -90.7031
    endloop
  endfacet
  facet normal 1 -0 0
    outer loop
      vertex -207 -200 107.905
      vertex -207 200 18.9935
      vertex -207 200 107.905
    endloop
  endfacet
  facet normal 1 0 0
    outer loop
      vertex -207 200 18.9935
      vertex -207 -200 107.905
      vertex -207 -200 18.9935
    endloop
  endfacet
  facet normal 1 -0 0
    outer loop
      vertex -207 -200 181
      vertex -207 200 128.69
      vertex -207 200 181
    endloop
  endfacet
  facet normal 1 0 0
    outer loop
      vertex -207 200 128.69
      vertex -207 -200 181
      vertex -207 -200 128.69
    endloop
  endfacet
  facet normal 1 -0 0
    outer loop
      vertex -207 -200 -221.184
      vertex -207 200 -310.096
      vertex -207 200 -221.184
    endloop
  endfacet
  facet normal 1 0 0
    outer loop
      vertex -207 200 -310.096
      vertex -207 -200 -221.184
      vertex -207 -200 -310.096
    endloop
  endfacet
  facet normal 0 0 -1
    outer loop
      vertex -207 -200 422
      vertex 207 200 422
      vertex 207 -200 422
    endloop
  endfacet
  facet normal -0 0 -1
    outer loop
      vertex 207 200 422
      vertex -207 -200 422
      vertex -207 200 422
    endloop
  endfacet
  facet normal -1 0 0
    outer loop
      vertex 207 -200 199
      vertex 207 200 422
      vertex 207 200 199
    endloop
  endfacet
  facet normal -1 -0 0
    outer loop
      vertex 207 200 422
      vertex 207 -200 199
      vertex 207 -200 422
    endloop
  endfacet
  facet normal -1 0 0
    outer loop
      vertex 207 -200 -422
      vertex 207 200 -350.511
      vertex 207 200 -422
    endloop
  endfacet
  facet normal -1 -0 0
    outer loop
      vertex 207 200 -350.511
      vertex 207 -200 -422
      vertex 207 -200 -350.511
    endloop
  endfacet
  facet normal -1 0 0
    outer loop
      vertex 207 -200 -329.726
      vertex 207 200 -240.814
      vertex 207 200 -329.726
    endloop
  endfacet
  facet normal -1 -0 0
    outer loop
      vertex 207 200 -240.814
      vertex 207 -200 -329.726
      vertex 207 -200 -240.814
    endloop
  endfacet
  facet normal -1 0 0
    outer loop
      vertex 207 -200 -220.03
      vertex 207 200 -131.118
      vertex 207 200 -220.03
    endloop
  endfacet
  facet normal -1 -0 0
    outer loop
      vertex 207 200 -131.118
      vertex 207 -200 -220.03
      vertex 207 -200 -131.118
    endloop
  endfacet
  facet normal -1 0 0
    outer loop
      vertex 207 -200 -110.333
      vertex 207 200 -21.4211
      vertex 207 200 -110.333
    endloop
  endfacet
  facet normal -1 -0 0
    outer loop
      vertex 207 200 -21.4211
      vertex 207 -200 -110.333
      vertex 207 -200 -21.4211
    endloop
  endfacet
  facet normal -1 0 0
    outer loop
      vertex 207 -200 -0.636444
      vertex 207 200 88.2755
      vertex 207 200 -0.636444
    endloop
  endfacet
  facet normal -1 -0 0
    outer loop
      vertex 207 200 88.2755
      vertex 207 -200 -0.636444
      vertex 207 -200 88.2755
    endloop
  endfacet
  facet normal -1 0 0
    outer loop
      vertex 207 -200 109.06
      vertex 207 200 181
      vertex 207 200 109.06
    endloop
  endfacet
  facet normal -1 -0 0
    outer loop
      vertex 207 200 181
      vertex 207 -200 109.06
      vertex 207 -200 181
    endloop
  endfacet
  facet normal -0 0 1
    outer loop
      vertex -207 200 -422
      vertex -49.1769 -200 -422
      vertex -49.1769 200 -422
    endloop
  endfacet
  facet normal 0 0 1
    outer loop
      vertex -49.1769 -200 -422
      vertex -207 200 -422
      vertex -207 -200 -422
    endloop
  endfacet
  facet normal -0 0 1
    outer loop
      vertex 176.823 200 -422
      vertex 207 -200 -422
      vertex 207 200 -422
    endloop
  endfacet
  facet normal 0 0 1
    outer loop
      vertex 207 -200 -422
      vertex 176.823 200 -422
      vertex 176.823 -200 -422
    endloop
  endfacet
  facet normal -0 0 1
    outer loop
      vertex -13.1769 200 -422
      vertex 140.823 -200 -422
      vertex 140.823 200 -422
    endloop
  endfacet
  facet normal 0 0 1
    outer loop
      vertex 140.823 -200 -422
      vertex -13.1769 200 -422
      vertex -13.1769 -200 -422
    endloop
  endfacet
  facet normal -0.866025 0 0.5
    outer loop
      vertex -229.5 -200 -317.89
      vertex -225 200 -310.096
      vertex -229.5 200 -317.89
    endloop
  endfacet
  facet normal -0.866025 0 0.5
    outer loop
      vertex -225 200 -310.096
      vertex -229.5 -200 -317.89
      vertex -225 -200 -310.096
    endloop
  endfacet
  facet normal 0.5 0 0.866025
    outer loop
      vertex 18 200 -440
      vertex 229.5 -200 -562.11
      vertex 229.5 200 -562.11
    endloop
  endfacet
  facet normal 0.5 0 0.866025
    outer loop
      vertex 229.5 -200 -562.11
      vertex 18 200 -440
      vertex 18 -200 -440
    endloop
  endfacet
  facet normal 0.5 0 0.866025
    outer loop
      vertex -207 200 -310.096
      vertex -13.1769 -200 -422
      vertex -13.1769 200 -422
    endloop
  endfacet
  facet normal 0.5 0 0.866025
    outer loop
      vertex -13.1769 -200 -422
      vertex -207 200 -310.096
      vertex -207 -200 -310.096
    endloop
  endfacet
  facet normal 0.866026 0 -0.499999
    outer loop
      vertex 229.5 -200 -562.11
      vertex 220.5 200 -577.698
      vertex 229.5 200 -562.11
    endloop
  endfacet
  facet normal 0.866026 0 -0.499999
    outer loop
      vertex 220.5 200 -577.698
      vertex 229.5 -200 -562.11
      vertex 220.5 -200 -577.698
    endloop
  endfacet
  facet normal -0.500001 0 -0.866025
    outer loop
      vertex -229.5 -200 -317.89
      vertex -225 200 -320.488
      vertex -225 -200 -320.488
    endloop
  endfacet
  facet normal -0.500001 0 -0.866025
    outer loop
      vertex -225 200 -320.488
      vertex -229.5 -200 -317.89
      vertex -229.5 200 -317.89
    endloop
  endfacet
  facet normal -0.5 0 -0.866025
    outer loop
      vertex -18 -200 -440
      vertex 220.5 200 -577.698
      vertex 220.5 -200 -577.698
    endloop
  endfacet
  facet normal -0.5 0 -0.866025
    outer loop
      vertex 220.5 200 -577.698
      vertex -18 -200 -440
      vertex -18 200 -440
    endloop
  endfacet
  facet normal -0.5 0 -0.866025
    outer loop
      vertex -207 -200 -330.881
      vertex -49.1769 200 -422
      vertex -49.1769 -200 -422
    endloop
  endfacet
  facet normal -0.5 0 -0.866025
    outer loop
      vertex -49.1769 200 -422
      vertex -207 -200 -330.881
      vertex -207 200 -330.881
    endloop
  endfacet
  facet normal -0.866025 0 0.5
    outer loop
      vertex -229.5 -200 -208.194
      vertex -225 200 -200.4
      vertex -229.5 200 -208.194
    endloop
  endfacet
  facet normal -0.866025 0 0.5
    outer loop
      vertex -225 200 -200.4
      vertex -229.5 -200 -208.194
      vertex -225 -200 -200.4
    endloop
  endfacet
  facet normal 0.5 0 0.866026
    outer loop
      vertex 208 200 -440
      vertex 229.5 -200 -452.413
      vertex 229.5 200 -452.413
    endloop
  endfacet
  facet normal 0.5 0 0.866026
    outer loop
      vertex 229.5 -200 -452.413
      vertex 208 200 -440
      vertex 208 -200 -440
    endloop
  endfacet
  facet normal 0.5 0 0.866025
    outer loop
      vertex -207 200 -200.4
      vertex 176.823 -200 -422
      vertex 176.823 200 -422
    endloop
  endfacet
  facet normal 0.5 0 0.866025
    outer loop
      vertex 176.823 -200 -422
      vertex -207 200 -200.4
      vertex -207 -200 -200.4
    endloop
  endfacet
  facet normal 0.866026 0 -0.5
    outer loop
      vertex 229.5 -200 -452.413
      vertex 220.5 200 -468.001
      vertex 229.5 200 -452.413
    endloop
  endfacet
  facet normal 0.866026 0 -0.5
    outer loop
      vertex 220.5 200 -468.001
      vertex 229.5 -200 -452.413
      vertex 220.5 -200 -468.001
    endloop
  endfacet
  facet normal -0.500001 0 -0.866025
    outer loop
      vertex -229.5 -200 -208.194
      vertex -225 200 -210.792
      vertex -225 -200 -210.792
    endloop
  endfacet
  facet normal -0.500001 0 -0.866025
    outer loop
      vertex -225 200 -210.792
      vertex -229.5 -200 -208.194
      vertex -229.5 200 -208.194
    endloop
  endfacet
  facet normal -0.5 0 -0.866025
    outer loop
      vertex 172 -200 -440
      vertex 220.5 200 -468.001
      vertex 220.5 -200 -468.001
    endloop
  endfacet
  facet normal -0.5 0 -0.866025
    outer loop
      vertex 220.5 200 -468.001
      vertex 172 -200 -440
      vertex 172 200 -440
    endloop
  endfacet
  facet normal -0.5 0 -0.866025
    outer loop
      vertex -207 -200 -221.184
      vertex 140.823 200 -422
      vertex 140.823 -200 -422
    endloop
  endfacet
  facet normal -0.5 0 -0.866025
    outer loop
      vertex 140.823 200 -422
      vertex -207 -200 -221.184
      vertex -207 200 -221.184
    endloop
  endfacet
  facet normal -0.866025 0 0.5
    outer loop
      vertex -229.5 -200 -98.4973
      vertex -225 200 -90.7031
      vertex -229.5 200 -98.4973
    endloop
  endfacet
  facet normal -0.866025 0 0.5
    outer loop
      vertex -225 200 -90.7031
      vertex -229.5 -200 -98.4973
      vertex -225 -200 -90.7031
    endloop
  endfacet
  facet normal 0.500001 0 0.866025
    outer loop
      vertex 225 200 -340.118
      vertex 229.5 -200 -342.716
      vertex 229.5 200 -342.716
    endloop
  endfacet
  facet normal 0.500001 0 0.866025
    outer loop
      vertex 229.5 -200 -342.716
      vertex 225 200 -340.118
      vertex 225 -200 -340.118
    endloop
  endfacet
  facet normal 0.5 0 0.866025
    outer loop
      vertex -207 200 -90.7031
      vertex 207 -200 -329.726
      vertex 207 200 -329.726
    endloop
  endfacet
  facet normal 0.5 0 0.866025
    outer loop
      vertex 207 -200 -329.726
      vertex -207 200 -90.7031
      vertex -207 -200 -90.7031
    endloop
  endfacet
  facet normal 0.866025 0 -0.5
    outer loop
      vertex 229.5 -200 -342.716
      vertex 225 200 -350.511
      vertex 229.5 200 -342.716
    endloop
  endfacet
  facet normal 0.866025 0 -0.5
    outer loop
      vertex 225 200 -350.511
      vertex 229.5 -200 -342.716
      vertex 225 -200 -350.511
    endloop
  endfacet
  facet normal -0.5 0 -0.866025
    outer loop
      vertex -229.5 -200 -98.4973
      vertex -225 200 -101.095
      vertex -225 -200 -101.095
    endloop
  endfacet
  facet normal -0.5 0 -0.866025
    outer loop
      vertex -225 200 -101.095
      vertex -229.5 -200 -98.4973
      vertex -229.5 200 -98.4973
    endloop
  endfacet
  facet normal -0.5 0 -0.866025
    outer loop
      vertex -207 -200 -111.488
      vertex 207 200 -350.511
      vertex 207 -200 -350.511
    endloop
  endfacet
  facet normal -0.5 0 -0.866025
    outer loop
      vertex 207 200 -350.511
      vertex -207 -200 -111.488
      vertex -207 200 -111.488
    endloop
  endfacet
  facet normal -0.866025 0 0.5
    outer loop
      vertex -229.5 -200 11.1992
      vertex -225 200 18.9935
      vertex -229.5 200 11.1992
    endloop
  endfacet
  facet normal -0.866025 0 0.5
    outer loop
      vertex -225 200 18.9935
      vertex -229.5 -200 11.1992
      vertex -225 -200 18.9935
    endloop
  endfacet
  facet normal 0.500001 0 0.866025
    outer loop
      vertex 225 200 -230.422
      vertex 229.5 -200 -233.02
      vertex 229.5 200 -233.02
    endloop
  endfacet
  facet normal 0.500001 0 0.866025
    outer loop
      vertex 229.5 -200 -233.02
      vertex 225 200 -230.422
      vertex 225 -200 -230.422
    endloop
  endfacet
  facet normal 0.5 0 0.866025
    outer loop
      vertex -207 200 18.9935
      vertex 207 -200 -220.03
      vertex 207 200 -220.03
    endloop
  endfacet
  facet normal 0.5 0 0.866025
    outer loop
      vertex 207 -200 -220.03
      vertex -207 200 18.9935
      vertex -207 -200 18.9935
    endloop
  endfacet
  facet normal 0.866026 0 -0.5
    outer loop
      vertex 229.5 -200 -233.02
      vertex 225 200 -240.814
      vertex 229.5 200 -233.02
    endloop
  endfacet
  facet normal 0.866026 0 -0.5
    outer loop
      vertex 225 200 -240.814
      vertex 229.5 -200 -233.02
      vertex 225 -200 -240.814
    endloop
  endfacet
  facet normal -0.5 0 -0.866025
    outer loop
      vertex -229.5 -200 11.1992
      vertex -225 200 8.60116
      vertex -225 -200 8.60116
    endloop
  endfacet
  facet normal -0.5 0 -0.866025
    outer loop
      vertex -225 200 8.60116
      vertex -229.5 -200 11.1992
      vertex -229.5 200 11.1992
    endloop
  endfacet
  facet normal -0.5 0 -0.866025
    outer loop
      vertex -207 -200 -1.79115
      vertex 207 200 -240.814
      vertex 207 -200 -240.814
    endloop
  endfacet
  facet normal -0.5 0 -0.866025
    outer loop
      vertex 207 200 -240.814
      vertex -207 -200 -1.79115
      vertex -207 200 -1.79115
    endloop
  endfacet
  facet normal -0.866026 0 0.5
    outer loop
      vertex -229.5 -200 120.896
      vertex -225 200 128.69
      vertex -229.5 200 120.896
    endloop
  endfacet
  facet normal -0.866026 0 0.5
    outer loop
      vertex -225 200 128.69
      vertex -229.5 -200 120.896
      vertex -225 -200 128.69
    endloop
  endfacet
  facet normal 0.5 0 0.866025
    outer loop
      vertex 225 200 -120.725
      vertex 229.5 -200 -123.323
      vertex 229.5 200 -123.323
    endloop
  endfacet
  facet normal 0.5 0 0.866025
    outer loop
      vertex 229.5 -200 -123.323
      vertex 225 200 -120.725
      vertex 225 -200 -120.725
    endloop
  endfacet
  facet normal 0.5 0 0.866025
    outer loop
      vertex -207 200 128.69
      vertex 207 -200 -110.333
      vertex 207 200 -110.333
    endloop
  endfacet
  facet normal 0.5 0 0.866025
    outer loop
      vertex 207 -200 -110.333
      vertex -207 200 128.69
      vertex -207 -200 128.69
    endloop
  endfacet
  facet normal 0.866025 0 -0.5
    outer loop
      vertex 229.5 -200 -123.323
      vertex 225 200 -131.118
      vertex 229.5 200 -123.323
    endloop
  endfacet
  facet normal 0.866025 0 -0.5
    outer loop
      vertex 225 200 -131.118
      vertex 229.5 -200 -123.323
      vertex 225 -200 -131.118
    endloop
  endfacet
  facet normal -0.5 0 -0.866025
    outer loop
      vertex -229.5 -200 120.896
      vertex -225 200 118.298
      vertex -225 -200 118.298
    endloop
  endfacet
  facet normal -0.5 0 -0.866025
    outer loop
      vertex -225 200 118.298
      vertex -229.5 -200 120.896
      vertex -229.5 200 120.896
    endloop
  endfacet
  facet normal -0.5 0 -0.866025
    outer loop
      vertex -207 -200 107.905
      vertex 207 200 -131.118
      vertex 207 -200 -131.118
    endloop
  endfacet
  facet normal -0.5 0 -0.866025
    outer loop
      vertex 207 200 -131.118
      vertex -207 -200 107.905
      vertex -207 200 107.905
    endloop
  endfacet
  facet normal 0.5 0 0.866025
    outer loop
      vertex 225 200 -11.0287
      vertex 229.5 -200 -13.6268
      vertex 229.5 200 -13.6268
    endloop
  endfacet
  facet normal 0.5 0 0.866025
    outer loop
      vertex 229.5 -200 -13.6268
      vertex 225 200 -11.0287
      vertex 225 -200 -11.0287
    endloop
  endfacet
  facet normal 0.5 0 0.866025
    outer loop
      vertex -143.977 200 202
      vertex -138.78 -200 199
      vertex -138.78 200 199
    endloop
  endfacet
  facet normal 0.5 0 0.866025
    outer loop
      vertex -138.78 -200 199
      vertex -143.977 200 202
      vertex -143.977 -200 202
    endloop
  endfacet
  facet normal 0.5 0 0.866025
    outer loop
      vertex -107.604 200 181
      vertex 207 -200 -0.636444
      vertex 207 200 -0.636444
    endloop
  endfacet
  facet normal 0.5 0 0.866025
    outer loop
      vertex 207 -200 -0.636444
      vertex -107.604 200 181
      vertex -107.604 -200 181
    endloop
  endfacet
  facet normal 0.866025 0 -0.5
    outer loop
      vertex 229.5 -200 -13.6268
      vertex 225 200 -21.4211
      vertex 229.5 200 -13.6268
    endloop
  endfacet
  facet normal 0.866025 0 -0.5
    outer loop
      vertex 225 200 -21.4211
      vertex 229.5 -200 -13.6268
      vertex 225 -200 -21.4211
    endloop
  endfacet
  facet normal -0.866026 0 0.5
    outer loop
      vertex -229.5 -200 230.592
      vertex -225 200 238.387
      vertex -229.5 200 230.592
    endloop
  endfacet
  facet normal -0.866026 0 0.5
    outer loop
      vertex -225 200 238.387
      vertex -229.5 -200 230.592
      vertex -225 -200 238.387
    endloop
  endfacet
  facet normal -0.499999 0 -0.866026
    outer loop
      vertex -229.5 -200 230.592
      vertex -225 200 227.994
      vertex -225 -200 227.994
    endloop
  endfacet
  facet normal -0.499999 0 -0.866026
    outer loop
      vertex -225 200 227.994
      vertex -229.5 -200 230.592
      vertex -229.5 200 230.592
    endloop
  endfacet
  facet normal -0.5 0 -0.866025
    outer loop
      vertex -179.977 -200 202
      vertex -174.78 200 199
      vertex -174.78 -200 199
    endloop
  endfacet
  facet normal -0.5 0 -0.866025
    outer loop
      vertex -174.78 200 199
      vertex -179.977 -200 202
      vertex -179.977 200 202
    endloop
  endfacet
  facet normal -0.5 0 -0.866025
    outer loop
      vertex -143.604 -200 181
      vertex 207 200 -21.4211
      vertex 207 -200 -21.4211
    endloop
  endfacet
  facet normal -0.5 0 -0.866025
    outer loop
      vertex 207 200 -21.4211
      vertex -143.604 -200 181
      vertex -143.604 200 181
    endloop
  endfacet
  facet normal -0.866026 0 0.499999
    outer loop
      vertex -229.5 -200 340.289
      vertex -225 200 348.083
      vertex -229.5 200 340.289
    endloop
  endfacet
  facet normal -0.866026 0 0.499999
    outer loop
      vertex -225 200 348.083
      vertex -229.5 -200 340.289
      vertex -225 -200 348.083
    endloop
  endfacet
  facet normal 0.5 0 0.866025
    outer loop
      vertex 225 200 98.6678
      vertex 229.5 -200 96.0697
      vertex 229.5 200 96.0697
    endloop
  endfacet
  facet normal 0.5 0 0.866025
    outer loop
      vertex 229.5 -200 96.0697
      vertex 225 200 98.6678
      vertex 225 -200 98.6678
    endloop
  endfacet
  facet normal 0.5 0 0.866025
    outer loop
      vertex 46.0234 200 202
      vertex 51.2195 -200 199
      vertex 51.2195 200 199
    endloop
  endfacet
  facet normal 0.5 0 0.866025
    outer loop
      vertex 51.2195 -200 199
      vertex 46.0234 200 202
      vertex 46.0234 -200 202
    endloop
  endfacet
  facet normal 0.5 0 0.866025
    outer loop
      vertex 82.3964 200 181
      vertex 207 -200 109.06
      vertex 207 200 109.06
    endloop
  endfacet
  facet normal 0.5 0 0.866025
    outer loop
      vertex 207 -200 109.06
      vertex 82.3964 200 181
      vertex 82.3964 -200 181
    endloop
  endfacet
  facet normal -0.499997 0 -0.866027
    outer loop
      vertex -229.5 -200 340.289
      vertex -225 200 337.691
      vertex -225 -200 337.691
    endloop
  endfacet
  facet normal -0.499997 0 -0.866027
    outer loop
      vertex -225 200 337.691
      vertex -229.5 -200 340.289
      vertex -229.5 200 340.289
    endloop
  endfacet
  facet normal -0.5 0 -0.866025
    outer loop
      vertex 10.0234 -200 202
      vertex 15.2195 200 199
      vertex 15.2195 -200 199
    endloop
  endfacet
  facet normal -0.5 0 -0.866025
    outer loop
      vertex 15.2195 200 199
      vertex 10.0234 -200 202
      vertex 10.0234 200 202
    endloop
  endfacet
  facet normal -0.5 0 -0.866025
    outer loop
      vertex 46.3964 -200 181
      vertex 207 200 88.2755
      vertex 207 -200 88.2755
    endloop
  endfacet
  facet normal -0.5 0 -0.866025
    outer loop
      vertex 207 200 88.2755
      vertex 46.3964 -200 181
      vertex 46.3964 200 181
    endloop
  endfacet
  facet normal 0.866025 0 -0.5
    outer loop
      vertex 229.5 -200 96.0697
      vertex 225 200 88.2755
      vertex 229.5 200 96.0697
    endloop
  endfacet
  facet normal 0.866025 0 -0.5
    outer loop
      vertex 225 200 88.2755
      vertex 229.5 -200 96.0697
      vertex 225 -200 88.2755
    endloop
  endfacet
  facet normal -0 0 1
    outer loop
      vertex 10.0234 200 202
      vertex 46.0234 -200 202
      vertex 46.0234 200 202
    endloop
  endfacet
  facet normal 0 0 1
    outer loop
      vertex 46.0234 -200 202
      vertex 10.0234 200 202
      vertex 10.0234 -200 202
    endloop
  endfacet
  facet normal -0 0 1
    outer loop
      vertex -179.977 200 202
      vertex -143.977 -200 202
      vertex -143.977 200 202
    endloop
  endfacet
  facet normal 0 0 1
    outer loop
      vertex -143.977 -200 202
      vertex -179.977 200 202
      vertex -179.977 -200 202
    endloop
  endfacet
  facet normal -0 0 1
    outer loop
      vertex -207 200 199
      vertex -174.78 -200 199
      vertex -174.78 200 199
    endloop
  endfacet
  facet normal 0 0 1
    outer loop
      vertex -174.78 -200 199
      vertex -207 200 199
      vertex -207 -200 199
    endloop
  endfacet
  facet normal -0 0 1
    outer loop
      vertex -138.78 200 199
      vertex 15.2195 -200 199
      vertex 15.2195 200 199
    endloop
  endfacet
  facet normal 0 0 1
    outer loop
      vertex 15.2195 -200 199
      vertex -138.78 200 199
      vertex -138.78 -200 199
    endloop
  endfacet
  facet normal -0 0 1
    outer loop
      vertex 51.2195 200 199
      vertex 207 -200 199
      vertex 207 200 199
    endloop
  endfacet
  facet normal 0 0 1
    outer loop
      vertex 207 -200 199
      vertex 51.2195 200 199
      vertex 51.2195 -200 199
    endloop
  endfacet
  facet normal 0 0 -1
    outer loop
      vertex -207 -200 181
      vertex -143.604 200 181
      vertex -143.604 -200 181
    endloop
  endfacet
  facet normal -0 0 -1
    outer loop
      vertex -143.604 200 181
      vertex -207 -200 181
      vertex -207 200 181
    endloop
  endfacet
  facet normal 0 0 -1
    outer loop
      vertex -107.604 -200 181
      vertex 46.3964 200 181
      vertex 46.3964 -200 181
    endloop
  endfacet
  facet normal -0 0 -1
    outer loop
      vertex 46.3964 200 181
      vertex -107.604 -200 181
      vertex -107.604 200 181
    endloop
  endfacet
  facet normal 0 0 -1
    outer loop
      vertex 82.3964 -200 181
      vertex 207 200 181
      vertex 207 -200 181
    endloop
  endfacet
  facet normal -0 0 -1
    outer loop
      vertex 207 200 181
      vertex 82.3964 -200 181
      vertex 82.3964 200 181
    endloop
  endfacet
endsolid OpenSCAD_Model
